<svg width="96" height="96" viewBox="0 0 96 96" fill="none" xmlns="http://www.w3.org/2000/svg">
<path d="M95.8852 58.3842C96.2737 46.7275 95.6716 35.0589 94.0852 23.5042C94.1494 22.6788 94.1494 21.8496 94.0852 21.0242C93.5292 18.3482 85.4972 17.0282 82.1012 16.7082C81.7889 16.6742 81.4756 16.7641 81.2288 16.9585C80.982 17.153 80.8213 17.4365 80.7812 17.7482C80.5812 20.3882 84.7812 17.7482 91.2132 21.7482C91.1387 24.587 91.3666 27.4257 91.8932 30.2162C92.8532 39.1642 92.3332 45.3602 91.8932 69.1322C87.1444 68.097 82.2797 67.6935 77.4252 67.9322C68.3763 67.8701 59.5388 70.6671 52.1732 75.9242C54.8932 65.3762 61.5252 62.5402 70.8732 59.1842C71.9332 58.8522 73.0412 58.7042 74.1532 58.7442C74.3734 59.2293 74.7566 59.6221 75.2362 59.8542C75.7157 60.0863 76.2615 60.1431 76.7786 60.0147C77.2957 59.8864 77.7515 59.5811 78.0669 59.1517C78.3823 58.7223 78.5374 58.196 78.5052 57.6642C76.9852 17.2682 78.5052 11.5962 77.8652 7.84018C77.2252 4.08418 74.5092 3.64018 70.7132 3.08018C66.0507 2.5903 61.3421 3.35854 57.077 5.305C52.812 7.25145 49.1463 10.305 46.4612 14.1482C46.1412 14.8282 44.2612 18.9842 44.1012 19.4242C41.3729 17.3437 38.2238 15.8831 34.8732 15.1442C26.266 13.2357 17.2552 14.6653 9.66124 19.1442C8.18182 20.1067 6.91528 21.362 5.93976 22.8329C4.96423 24.3037 4.30041 25.9589 3.98924 27.6962C0.469244 41.9202 -1.64676 46.1202 1.62924 76.3642C1.62924 77.6042 1.62924 79.5242 2.82924 80.6802C3.0982 80.9046 3.41303 81.0675 3.75163 81.1573C4.09023 81.2472 4.44439 81.2618 4.78924 81.2002V84.2762C5.30924 91.4682 14.8572 87.0762 25.3652 86.1962C34.0732 85.5162 35.0332 87.3922 42.7452 91.8682C45.9195 93.0609 49.3589 93.3652 52.6932 92.7482C55.4264 92.3361 58.0182 91.2653 60.2452 89.6282C86.5772 70.2522 85.6572 92.9082 91.8132 76.6442C92.0932 75.8975 92.2666 75.1242 92.3332 74.3242C92.6432 74.5259 93.0005 74.6431 93.3697 74.6641C93.7389 74.6851 94.1072 74.6091 94.438 74.4437C94.7688 74.2783 95.0506 74.0293 95.2553 73.7213C95.4601 73.4134 95.5807 73.0572 95.6052 72.6882C95.9759 67.9228 96.0692 63.1548 95.8852 58.3842ZM47.4612 21.5442C59.4412 -0.991821 74.3092 8.92018 74.9492 9.56018C75.2692 10.7602 73.4692 37.8522 73.3892 40.3282L73.7492 54.1122C69.3178 54.5905 65.0351 55.9894 61.1757 58.2191C57.3163 60.4487 53.9652 63.4601 51.3372 67.0602C49.3372 70.4962 50.0172 70.8562 49.6572 68.5802C49.5772 68.1802 47.2972 21.8682 47.4572 21.5482M4.30924 38.8842C5.46924 34.4522 6.90524 23.1842 10.7412 21.9042C21.9292 18.1482 33.1172 17.2282 43.5012 22.9042C44.7372 26.3322 45.2932 29.9682 45.1412 33.6122C45.1412 41.8002 45.3812 66.5322 46.3412 73.9682C39.9806 71.0698 33.03 69.6999 26.0452 69.9682C20.5199 70.4644 15.1169 71.8841 10.0612 74.1682C9.58124 74.1682 7.34124 76.4442 5.74524 77.3242C5.74524 76.7642 5.30524 76.1242 5.26524 75.8042C3.98524 64.9362 2.10924 50.6322 4.30524 38.8842M86.4532 78.1642C74.9452 73.5642 65.7972 80.0802 57.6452 85.9122C55.9029 87.0774 53.9405 87.8738 51.8788 88.2521C49.8171 88.6305 47.6998 88.5828 45.6572 88.1122C30.1932 77.1642 24.2012 82.3962 10.2172 84.5122C9.49724 84.5122 8.93724 84.8722 8.57724 84.5122C8.21724 84.1522 7.81724 81.8402 6.89724 80.5202C8.61724 79.6402 10.8972 78.2402 11.4572 78.0802C17.3292 76.2442 23.9612 71.9282 38.3452 75.9242C48.9732 78.6842 48.4132 83.3162 52.0092 81.3602C57.3652 78.4802 65.0772 69.8522 89.2092 72.7682C88.97 73.0614 88.8425 73.4298 88.8492 73.8082C86.4892 78.0442 86.6092 77.7642 86.4492 78.1602" fill="#002640"/>
<path d="M14.5722 35.968C18.5682 35.408 18.2482 33.448 23.5202 33.448C26.4611 33.6623 29.3622 34.2538 32.1522 35.208C32.9122 34.928 33.4722 34.608 33.4722 33.848C33.4722 32.132 31.0722 30.376 27.4362 29.856C16.9282 27.896 15.9282 32.932 13.9322 33.852C13.7495 34.0025 13.6154 34.2037 13.5467 34.4302C13.478 34.6567 13.4779 34.8985 13.5463 35.1251C13.6147 35.3517 13.7486 35.5531 13.9312 35.7037C14.1137 35.8544 14.3368 35.9478 14.5722 35.972M14.5722 50.072C18.5682 49.512 18.2482 47.556 23.5202 47.556C26.4602 47.768 29.3602 48.36 32.1522 49.316C32.9122 49.076 33.4722 48.716 33.4722 47.956C33.4722 46.236 31.0722 44.516 27.4362 43.96C16.9282 42 15.9282 47 13.9322 47.956C13.7356 47.9358 13.537 47.9644 13.3542 48.0394C13.1713 48.1144 13.0098 48.2334 12.8839 48.3858C12.7581 48.5382 12.6719 48.7193 12.6329 48.9131C12.5939 49.1069 12.6034 49.3073 12.6606 49.4965C12.7177 49.6857 12.8207 49.8579 12.9603 49.9977C13.1 50.1376 13.2721 50.2408 13.4612 50.2981C13.6504 50.3554 13.8508 50.3652 14.0446 50.3264C14.2384 50.2877 14.4197 50.2017 14.5722 50.076M14.5722 64.336C18.5682 63.776 18.2482 61.82 23.5202 61.82C26.4588 62.0511 29.3578 62.6422 32.1522 63.58C32.9122 63.34 33.4722 62.98 33.4722 62.26C33.4722 60.5 31.0722 58.78 27.4362 58.264C16.9282 56.304 15.9282 61.344 13.9322 62.26C13.6812 62.2232 13.4249 62.2671 13.2005 62.3855C12.9761 62.5039 12.7951 62.6906 12.6838 62.9186C12.5724 63.1466 12.5365 63.4041 12.5812 63.6538C12.6258 63.9036 12.7488 64.1327 12.9322 64.308C13.151 64.5199 13.4422 64.6407 13.7467 64.6459C14.0512 64.6511 14.3464 64.5403 14.5722 64.336Z" fill="#002640"/>
</svg>
