<svg width="35" height="41" viewBox="0 0 35 41" fill="none" xmlns="http://www.w3.org/2000/svg">
<path d="M21.75 0H12.75C5.60063 0 0 8.895 0 20.25C0 31.605 5.60063 40.5 12.75 40.5H21.75C28.8994 40.5 34.5 31.605 34.5 20.25C34.5 8.895 28.8994 0 21.75 0ZM28.7269 28.5H24.4331C24.9629 26.5381 25.2951 24.5281 25.425 22.5H29.9119C29.7641 24.541 29.3662 26.5561 28.7269 28.5ZM25.425 18C25.2951 15.9719 24.9629 13.9619 24.4331 12H28.7269C29.3662 13.9439 29.7641 15.959 29.9119 18H25.425ZM26.4806 7.5H22.7306C22.2033 6.44217 21.5754 5.43754 20.8556 4.5H21.75C22.7569 4.5 24.6094 4.92188 26.4806 7.5ZM7.26937 31.845C5.4825 28.7831 4.5 24.6656 4.5 20.25C4.5 15.8344 5.4825 11.7169 7.26937 8.655C9.375 5.04 11.6081 4.5 12.75 4.5C13.8919 4.5 16.125 5.04 18.2306 8.655C20.0175 11.7169 21 15.8344 21 20.25C21 24.6656 20.0175 28.7831 18.2306 31.845C16.125 35.46 13.8919 36 12.75 36C11.6081 36 9.375 35.46 7.26937 31.845ZM21.75 36H20.8519C21.5717 35.0625 22.1996 34.0578 22.7269 33H26.4769C24.6094 35.5781 22.7569 36 21.75 36Z" fill="#2E536B"/>
</svg>
