<svg width="12" height="13" viewBox="0 0 12 13" fill="none" xmlns="http://www.w3.org/2000/svg">
<path d="M10.8233 2.74986C8.90556 2.55982 6.97633 2.46191 5.05287 2.46191C3.91261 2.46191 2.77235 2.5195 1.63209 2.63468L0.457275 2.74986" stroke="#001422" stroke-width="0.914647" stroke-linecap="round" stroke-linejoin="round"/>
<path d="M3.62524 2.16791L3.75194 1.41349C3.84408 0.866401 3.91319 0.45752 4.88644 0.45752H6.39527C7.36852 0.45752 7.44339 0.889436 7.52977 1.41925L7.65646 2.16791" stroke="#001422" stroke-width="0.914647" stroke-linecap="round" stroke-linejoin="round"/>
<path d="M9.58522 4.56982L9.21089 10.369C9.14754 11.2732 9.09571 11.9757 7.48899 11.9757H3.79179C2.18506 11.9757 2.13323 11.2732 2.06988 10.369L1.69556 4.56982" stroke="#001422" stroke-width="0.914647" stroke-linecap="round" stroke-linejoin="round"/>
<path d="M4.67847 8.80859H6.59618" stroke="#001422" stroke-width="0.914647" stroke-linecap="round" stroke-linejoin="round"/>
<path d="M4.20044 6.50439H7.07988" stroke="#001422" stroke-width="0.914647" stroke-linecap="round" stroke-linejoin="round"/>
</svg>
