<svg width="24" height="24" viewBox="0 0 24 24" fill="none" xmlns="http://www.w3.org/2000/svg">
<rect width="24" height="24" rx="10" fill="#E6EAED"/>
<mask id="mask0_105_1622" style="mask-type:luminance" maskUnits="userSpaceOnUse" x="0" y="0" width="24" height="24">
<path d="M24 0H0V24H24V0Z" fill="white"/>
</mask>
<g mask="url(#mask0_105_1622)">
<path d="M20.999 5.97852C17.669 5.64852 14.319 5.47852 10.979 5.47852C8.99902 5.47852 7.01902 5.57852 5.03902 5.77852L2.99902 5.97852" stroke="#001422" stroke-width="0.264706" stroke-linecap="round" stroke-linejoin="round"/>
<path d="M8.5 4.96805L8.72 3.65805C8.88 2.70805 9 1.99805 10.69 1.99805H13.31C15 1.99805 15.13 2.74805 15.28 3.66805L15.5 4.96805" stroke="#001422" stroke-width="0.264706" stroke-linecap="round" stroke-linejoin="round"/>
<path d="M18.8494 9.13916L18.1994 19.2091C18.0894 20.7791 17.9994 21.9991 15.2094 21.9991H8.78941C5.99941 21.9991 5.90941 20.7791 5.79941 19.2091L5.14941 9.13916" stroke="#001422" stroke-width="0.264706" stroke-linecap="round" stroke-linejoin="round"/>
<path d="M10.3291 16.499H13.6591" stroke="#001422" stroke-width="0.264706" stroke-linecap="round" stroke-linejoin="round"/>
<path d="M9.49902 12.498H14.499" stroke="#001422" stroke-width="0.264706" stroke-linecap="round" stroke-linejoin="round"/>
</g>
</svg>
