<svg width="22" height="24" viewBox="0 0 22 24" fill="none" xmlns="http://www.w3.org/2000/svg">
<path fill-rule="evenodd" clip-rule="evenodd" d="M10.6329 11.0221C10.7119 11.0037 10.7816 10.9576 10.8296 10.8923C10.8776 10.8269 10.9007 10.7466 10.8947 10.6657C10.8886 10.5848 10.8539 10.5088 10.7967 10.4513C10.7396 10.3938 10.6637 10.3586 10.5829 10.3521C9.7813 10.3891 8.99076 10.1538 8.33986 9.68444C7.68897 9.21511 7.21601 8.53936 6.9979 7.76711C6.70813 6.78939 6.6874 5.75162 6.9379 4.76311C6.99024 4.80891 7.04722 4.84913 7.1079 4.88311C8.13195 5.30267 9.25336 5.42577 10.344 5.23833C11.4347 5.05089 12.4507 4.56048 13.2759 3.82311C13.4592 4.21644 13.6859 4.58311 13.9559 4.92311C14.7379 5.67411 16.0389 5.81511 16.3399 6.27511C16.3672 6.33782 16.4172 6.38785 16.4799 6.41511C16.2828 7.48315 15.7537 8.46175 14.968 9.21156C14.1823 9.96136 13.18 10.4441 12.1039 10.5911C12.0383 10.6163 11.9837 10.6638 11.9495 10.7252C11.9153 10.7865 11.9037 10.858 11.9168 10.927C11.9299 10.9961 11.9668 11.0583 12.0211 11.1029C12.0754 11.1475 12.1436 11.1717 12.2139 11.1711C19.9039 9.84011 18.5419 -0.33289 12.1539 0.00710995C3.1029 0.70011 4.7549 11.5031 10.6329 11.0221ZM16.5399 5.33511C15.621 4.63786 14.6613 3.99605 13.6659 3.41311C14.1106 2.94378 14.5212 2.44644 14.8979 1.92111C15.3946 2.33764 15.7976 2.85443 16.0806 3.43761C16.3636 4.0208 16.5201 4.6572 16.5399 5.30511V5.33511ZM14.3069 1.55011C13.3658 2.63766 12.1533 3.45644 10.7929 3.92311C9.8919 4.20311 7.88891 4.55411 7.2379 4.11311C7.251 4.07077 7.251 4.02545 7.2379 3.98311C8.4399 1.40011 12.3749 0.55011 14.3079 1.55011" fill="#001422"/>
<path fill-rule="evenodd" clip-rule="evenodd" d="M9.99204 7.19699C10.0227 7.22813 10.0593 7.25286 10.0997 7.26974C10.14 7.28662 10.1833 7.29531 10.227 7.29531C10.2708 7.29531 10.3141 7.28662 10.3544 7.26974C10.3948 7.25286 10.4313 7.22813 10.462 7.19699C10.712 6.95699 10.382 5.67499 9.27104 5.77599C7.98904 5.91599 7.98904 7.31799 8.56004 7.23699C9.13004 7.15699 9.17004 6.12599 9.99204 7.19699ZM14.548 7.33799C14.798 7.09799 14.207 5.51499 13.206 5.65499C12.625 5.81499 11.964 6.78699 12.335 7.00699C12.3725 7.04727 12.4201 7.07685 12.4728 7.09266C12.5256 7.10848 12.5815 7.10997 12.635 7.09699C12.7066 7.08954 12.7729 7.05573 12.821 7.00213C12.869 6.94853 12.8954 6.87898 12.895 6.80699C13.666 6.21699 13.987 7.85799 14.547 7.33699M12.675 9.01999C12.721 8.95302 12.7414 8.87181 12.7327 8.79107C12.7239 8.71034 12.6866 8.6354 12.6273 8.57981C12.5681 8.52423 12.491 8.49167 12.4099 8.48804C12.3287 8.4844 12.249 8.50993 12.185 8.55999C11.985 8.69999 11.764 8.66999 11.053 8.66999C10.8458 8.72442 10.626 8.70315 10.433 8.60999C10.3819 8.55278 10.3105 8.51775 10.2339 8.51234C10.1574 8.50692 10.0817 8.53156 10.023 8.581C9.96434 8.63045 9.92723 8.70082 9.91958 8.77718C9.91193 8.85354 9.93433 8.92988 9.98204 8.98999C10.1153 9.2286 10.3091 9.42781 10.544 9.56746C10.779 9.70712 11.0466 9.78226 11.3198 9.78531C11.5931 9.78835 11.8623 9.71918 12.1003 9.5848C12.3383 9.45041 12.5365 9.25558 12.675 9.01999ZM18.582 21.455C16.6773 21.6701 14.803 22.1002 12.995 22.737C12.4644 22.9123 11.9437 23.1157 11.433 23.347C11.493 23.167 12.154 14.557 11.693 14.106C11.597 13.991 11.4615 13.9161 11.313 13.896C10.603 13.826 9.82104 12.194 7.43804 11.413C6.37263 11.1118 5.27119 10.9571 4.16404 10.953C3.79404 10.953 3.05304 10.882 2.87304 11.233C2.85535 11.2813 2.84958 11.3332 2.8562 11.3842C2.86283 11.4352 2.88166 11.4839 2.9111 11.5261C2.94054 11.5683 2.97972 11.6028 3.02532 11.6266C3.07091 11.6504 3.12159 11.6629 3.17304 11.663H4.07404C6.74804 12.313 8.35004 12.544 10.572 14.366C11.253 15.007 10.492 17.01 10.772 22.917C10.0434 22.6179 9.28982 22.3837 8.52004 22.217C6.64704 21.535 5.04504 21.746 3.27304 21.535H2.00204C1.56104 21.535 1.44104 21.535 1.44104 20.835C1.44104 19.833 1.75104 19.293 1.28104 19.253C1.2036 19.2499 1.1278 19.2758 1.06857 19.3258C1.00934 19.3758 0.970974 19.4461 0.961038 19.523C0.841038 20.594 0.139038 21.936 1.62104 22.397C2.1117 22.4883 2.6057 22.5517 3.10304 22.587C4.85504 22.927 6.62704 22.687 8.23904 23.107C9.157 23.5603 10.1526 23.8355 11.173 23.918C11.173 24.028 11.533 24.328 18.553 22.266C18.7677 22.1633 18.961 22.03 19.133 21.866C19.1579 21.7938 19.1592 21.7155 19.1367 21.6426C19.1142 21.5696 19.0691 21.5056 19.0079 21.46C18.9466 21.4144 18.8725 21.3894 18.7961 21.3886C18.7197 21.3879 18.6451 21.4115 18.583 21.456" fill="#001422"/>
<path fill-rule="evenodd" clip-rule="evenodd" d="M4.97492 15.4082C4.88492 15.0282 4.75492 14.3362 4.22492 14.0262C3.17035 13.6475 2.01188 13.6797 0.979918 14.1162C0.64643 14.4103 0.385187 14.7773 0.216463 15.1886C0.0477384 15.6 -0.0239298 16.0447 0.00702012 16.4883C0.03797 16.9318 0.170705 17.3623 0.394926 17.7462C0.619146 18.1302 0.928821 18.4573 1.29992 18.7022C1.65109 19.0084 2.0786 19.2137 2.53708 19.2965C2.99555 19.3792 3.46788 19.3363 3.90392 19.1722C5.22592 18.4622 5.39592 16.8692 4.97492 15.4082ZM3.35292 18.2102C3.25199 18.2543 3.14304 18.277 3.03292 18.277C2.92279 18.277 2.81385 18.2543 2.71292 18.2102C0.549918 17.6302 0.419918 15.6372 1.45092 14.5962C2.14092 14.9962 3.23292 14.4562 3.73392 14.7962C3.88392 14.9162 4.61292 17.5092 3.35292 18.2102ZM1.88092 13.1652C2.02092 12.3242 2.15092 11.1622 1.59092 11.1622C1.50092 11.1622 1.38092 11.1622 1.32092 11.2522C1.12942 11.855 1.02832 12.4828 1.02092 13.1152C1.07092 13.8152 1.82092 13.6852 1.88092 13.1652ZM19.3029 12.0232C19.4029 12.4642 19.4729 12.8042 19.5329 13.0852C19.7829 13.7652 20.4449 13.5752 20.3249 12.8052C20.1866 12.2865 20.0929 11.7569 20.0449 11.2222C20.0247 10.9176 19.9089 10.6272 19.7139 10.3922C19.5356 10.2418 19.3057 10.1665 19.0729 10.1822C17.9086 10.329 16.7679 10.6247 15.6789 11.0622C14.8979 11.3722 11.6739 12.9752 11.6039 13.5552C11.5995 13.6344 11.6238 13.7124 11.6722 13.7752C11.7207 13.8379 11.7901 13.8811 11.8677 13.8969C11.9454 13.9127 12.0261 13.9 12.0952 13.8611C12.1643 13.8222 12.2171 13.7598 12.2439 13.6852C14.1057 12.7501 16.0586 12.0089 18.0719 11.4732C18.8019 11.2732 18.9719 10.6422 19.3029 12.0232ZM19.6439 19.8032C19.6161 20.5104 19.7039 21.2174 19.9039 21.8962C19.9939 22.0162 20.3539 22.0962 20.5139 21.6262C20.6709 21.0762 20.7379 20.5052 20.7149 19.9332C20.6725 19.8322 20.6041 19.7442 20.5167 19.6782C20.4293 19.6121 20.3259 19.5704 20.2172 19.5572C20.1084 19.544 19.9981 19.5598 19.8974 19.603C19.7967 19.6462 19.7093 19.7153 19.6439 19.8032ZM21.7559 15.4882C21.6756 14.8747 21.3732 14.3119 20.9059 13.9062C20.7959 13.8062 20.7159 13.8262 20.5049 13.8162C20.3588 13.8089 20.2127 13.8307 20.0752 13.8805C19.9377 13.9303 19.8114 14.0071 19.7039 14.1062C19.2639 15.1072 18.1019 14.4462 17.2909 15.1072C17.0855 15.3174 16.9316 15.5724 16.8414 15.8521C16.7511 16.1318 16.727 16.4286 16.7709 16.7192C16.9662 17.5741 17.437 18.3411 18.1109 18.9022C18.3166 19.1083 18.574 19.2552 18.8561 19.3273C19.1382 19.3995 19.4345 19.3943 19.7139 19.3122C21.1659 18.8822 21.9069 16.7392 21.7559 15.4882ZM18.9029 18.0312C18.5525 17.4671 18.2187 16.8929 17.9019 16.3092C17.9019 15.9692 17.9019 15.7992 18.1119 15.7192C18.6919 15.4482 20.0139 15.4682 20.4449 14.2862C20.6535 14.4878 20.814 14.7338 20.9144 15.006C21.0148 15.2782 21.0526 15.5695 21.0249 15.8582C20.9376 16.4482 20.7226 17.0119 20.3949 17.5102C20.0349 18.0312 19.3229 18.5022 18.9029 18.0312Z" fill="#001422"/>
</svg>
