<svg width="9" height="9" viewBox="0 0 9 9" fill="none" xmlns="http://www.w3.org/2000/svg">
<path d="M4.43267 8.80988C3.81051 8.80988 3.18393 8.5716 2.71179 8.09946L0.712919 6.10059C0.227542 5.61521 -0.0283838 4.94451 0.0025038 4.26057L0.108404 2.04991C0.156942 0.99532 0.990907 0.161354 2.04991 0.108404L4.25617 0.0025038C4.94453 -0.0283838 5.61082 0.227542 6.09619 0.712919L8.09506 2.71179C9.04375 3.66047 9.04375 5.20926 8.09506 6.15795L6.15797 8.09505C5.68142 8.5716 5.05925 8.80988 4.43267 8.80988ZM1.18065 5.62845L3.17951 7.62732C3.87228 8.32009 4.99748 8.32009 5.69024 7.62732L7.62733 5.69023C8.3201 4.99746 8.3201 3.87227 7.62733 3.17951L5.62405 1.18506C5.27105 0.832057 4.79009 0.646731 4.28265 0.668794L2.07639 0.774694C1.36156 0.805582 0.801169 1.36597 0.765869 2.0808L0.659969 4.29146C0.637906 4.78566 0.827644 5.27545 1.18065 5.62845Z" fill="#001422"/>
<path d="M3.29833 4.73679C2.50849 4.73679 1.86426 4.09256 1.86426 3.30272C1.86426 2.51288 2.50849 1.86865 3.29833 1.86865C4.08817 1.86865 4.73239 2.51288 4.73239 3.30272C4.73239 4.09256 4.08817 4.73679 3.29833 4.73679ZM3.29833 2.53053C2.87472 2.53053 2.52614 2.87912 2.52614 3.30272C2.52614 3.72632 2.87472 4.07491 3.29833 4.07491C3.72193 4.07491 4.07052 3.72632 4.07052 3.30272C4.07052 2.87912 3.72193 2.53053 3.29833 2.53053Z" fill="#001422"/>
<path d="M4.84155 6.94385C4.75772 6.94385 4.67388 6.91296 4.60769 6.84677C4.47973 6.71881 4.47973 6.50701 4.60769 6.37904L6.3727 4.61404C6.50066 4.48608 6.71246 4.48608 6.84042 4.61404C6.96839 4.742 6.96839 4.9538 6.84042 5.08177L5.07542 6.84677C5.00923 6.91296 4.92539 6.94385 4.84155 6.94385Z" fill="#001422"/>
</svg>
