<svg width="192" height="192" viewBox="0 0 192 192" fill="none" xmlns="http://www.w3.org/2000/svg">
<g clip-path="url(#clip0_10716_1250)">
<path d="M190.583 22.392C190.5 18.4498 190.126 14.519 189.463 10.632C189.191 9.20566 188.494 7.89498 187.463 6.872C186.394 6.15156 185.201 5.63613 183.943 5.352C178.343 4.31733 172.695 3.624 166.999 3.272C144.927 1.44 108.703 0 94.1513 0C89.8313 0 57.0472 0 32.8232 0.8C25.6659 1.04533 18.5486 1.712 11.4712 2.8C9.01051 3.1086 6.65519 3.985 4.59125 5.36C3.73356 6.20369 3.10096 7.24885 2.75125 8.4C1.77899 12.8701 1.21666 17.4197 1.07125 21.992C0.0312501 40.544 0.03125 71.968 0.03125 78.92C0.03125 85.88 1.07125 115.864 2.11125 134.016C2.11125 139.856 2.75125 144.416 3.07125 146.576C3.13846 147.675 3.52802 148.729 4.19125 149.608C6.47448 151.469 9.25871 152.611 12.1912 152.888C17.9112 153.464 23.6632 153.464 29.3832 152.888C35.5433 152.328 40.8232 151.848 45.3752 151.848C57.6952 151.848 56.6552 154.808 57.0552 156.328C57.9594 160.733 57.9594 165.275 57.0552 169.68C55.8985 176.12 53.1483 182.168 49.0552 187.272C48.7356 187.749 48.5575 188.307 48.5417 188.881C48.5259 189.455 48.673 190.022 48.966 190.515C49.259 191.009 49.6858 191.41 50.1972 191.671C50.7085 191.933 51.2834 192.044 51.8552 191.992C54.9752 191.952 58.0952 191.552 61.1353 190.792C69.1207 189.312 76.5537 185.69 82.6393 180.312C85.6191 176.983 88.2963 173.396 90.6393 169.592C94.6393 163.28 97.0312 157.44 99.2712 154.248C99.9912 154.248 101.911 153.688 103.831 153.688C117.023 153.688 147.967 155.048 158.999 155.928C164.834 156.328 170.674 156.328 176.519 155.928C179.896 155.875 183.17 154.755 185.871 152.728C188.431 147.128 189.735 141.048 189.711 134.888C191.951 114.104 191.951 78.84 191.951 71.968C191.951 65.088 191.471 38.064 190.591 22.392M182.591 126.816C182.517 132.923 182.063 139.003 181.231 145.056C181.231 146.016 180.671 147.136 180.591 147.536C179.957 147.802 179.285 147.964 178.599 148.016C176.397 148.336 174.183 148.523 171.959 148.576H160.287C150.607 148.016 125.823 147.136 110.711 147.216C106.834 147.125 102.967 147.285 99.1113 147.696C97.9104 147.777 96.7781 148.285 95.9193 149.128C93.3593 152.088 90.7992 159.048 86.1592 166.56C83.9992 169.931 81.5219 173.051 78.7272 175.92C72.5988 181.324 64.997 184.775 56.8952 185.832C60.3203 179.763 62.3943 173.025 62.9753 166.08C64.8152 144.808 52.2552 146.088 45.9432 146.008C41.3032 146.008 35.7832 146.008 29.3912 146.888C24.8579 147.229 20.3246 147.229 15.7913 146.888C13.355 146.963 10.9466 146.353 8.83925 145.128L7.23925 78.92C7.23925 73.24 7.23925 53.656 8.11925 36.544C8.11925 27.664 8.99925 19.424 9.71925 14.312C9.86858 13.1547 10.0819 12.008 10.3593 10.872C11.3993 10.872 13.0793 10.872 14.4392 10.472C23.5468 9.47496 32.7013 8.96756 41.8633 8.952C64.4153 8.472 90.3192 8.952 94.0792 8.952C104.959 8.952 128.143 9.912 148.295 11.112C159.815 11.832 170.287 12.632 176.919 13.432L180.679 14.072C180.727 15.0053 180.727 15.9387 180.679 16.872C181.959 30.472 182.519 63.008 182.439 71.888C182.839 77.968 183.399 105.952 182.679 126.816H182.591Z" fill="#002D4B"/>
<path d="M154.13 46.3766C148.53 45.8966 132.85 44.7766 114.546 44.0566H80.634C63.994 44.6166 49.13 45.8166 40.65 46.6166C40.0135 46.6166 39.403 46.8695 38.9529 47.3196C38.5029 47.7697 38.25 48.3801 38.25 49.0166C38.25 49.6532 38.5029 50.2636 38.9529 50.7137C39.403 51.1638 40.0135 51.4166 40.65 51.4166C48.65 51.4166 63.682 52.3766 80.154 52.8566H113.978C132.13 52.8566 147.802 51.8966 153.402 52.0566C154.131 52.0787 154.841 51.8151 155.379 51.3219C155.916 50.8288 156.241 50.1452 156.282 49.4166C156.358 48.7331 156.18 48.0454 155.782 47.4847C155.383 46.9241 154.801 46.5296 154.13 46.3766ZM151.97 76.0406H96.954C91.434 76.0406 85.834 76.0406 80.474 76.6806C61.77 77.7206 46.258 79.0806 42.258 79.1606C41.6215 79.1606 41.011 79.4135 40.5609 79.8636C40.1109 80.3137 39.858 80.9241 39.858 81.5606C39.858 82.1972 40.1109 82.8076 40.5609 83.2577C41.011 83.7078 41.6215 83.9606 42.258 83.9606C46.338 83.9606 62.01 85.2406 80.962 85.4006H97.434C103.034 85.4006 108.554 85.0006 113.986 84.6806C129.178 83.8006 143.33 82.5206 152.45 81.7206C153.171 81.7206 153.863 81.4341 154.373 80.924C154.883 80.4139 155.17 79.722 155.17 79.0006C155.17 78.2793 154.883 77.5874 154.373 77.0773C153.863 76.5672 153.171 76.2806 152.45 76.2806L151.97 76.0406ZM98.394 106.673C95.034 106.673 87.194 105.873 78.162 105.793H69.602C66.722 105.793 63.762 105.793 61.05 106.433C52.57 107.393 45.058 108.753 41.218 109.073C40.9028 109.073 40.5907 109.135 40.2996 109.255C40.0084 109.376 39.7438 109.553 39.5209 109.776C39.2981 109.998 39.1213 110.263 39.0007 110.554C38.8801 110.845 38.818 111.157 38.818 111.473C38.818 111.788 38.8801 112.1 39.0007 112.391C39.1213 112.682 39.2981 112.947 39.5209 113.17C39.7438 113.393 40.0084 113.569 40.2996 113.69C40.5907 113.811 40.9028 113.873 41.218 113.873C48.9193 114.763 56.65 115.217 64.41 115.233C68.97 115.233 73.69 115.233 78.09 114.353C87.194 113.473 95.034 112.193 98.474 111.953C99.1954 111.953 99.8872 111.666 100.397 111.156C100.907 110.646 101.194 109.954 101.194 109.233C101.184 108.879 101.103 108.531 100.956 108.209C100.808 107.887 100.598 107.598 100.336 107.359C100.075 107.121 99.7687 106.937 99.435 106.819C99.1013 106.701 98.7473 106.651 98.394 106.673Z" fill="#002D4B"/>
</g>
<defs>
<clipPath id="clip0_10716_1250">
<rect width="192" height="192" fill="white"/>
</clipPath>
</defs>
</svg>
