<svg width="32" height="14" viewBox="0 0 32 14" fill="none" xmlns="http://www.w3.org/2000/svg">
<path d="M12.5885 6.71646C9.11595 6.71646 6.30092 9.51382 6.30092 12.9645C6.30092 12.9645 0.0466335 14.2233 0.0143488 12.9647C-0.017936 11.7061 0.0143488 12.8034 0.0143488 12.8034C0.10076 6.00308 5.65376 0.511685 12.5076 0.46875L18.8763 0.469043V12.965H12.5888L12.5885 6.71646Z" fill="#EAAA08"/>
<path d="M18.6654 6.80746C22.138 6.80746 24.953 4.0101 24.953 0.559457C24.953 0.559457 31.2073 -0.699382 31.2396 0.559221C31.2718 1.81782 31.2396 0.72048 31.2396 0.72048C31.1531 7.52085 25.6001 13.0122 18.7463 13.0552L12.3776 13.0549V0.558929H18.6652L18.6654 6.80746Z" fill="#EAAA08"/>
</svg>
