<svg width="42" height="40" viewBox="0 0 42 40" fill="none" xmlns="http://www.w3.org/2000/svg">
<path d="M20.75 25.6296C24.0638 25.6296 26.75 22.9434 26.75 19.6296C26.75 16.3158 24.0638 13.6296 20.75 13.6296C17.4362 13.6296 14.75 16.3158 14.75 19.6296C14.75 22.9434 17.4362 25.6296 20.75 25.6296Z" stroke="#2E536B" stroke-width="1.5" stroke-miterlimit="10" stroke-linecap="round" stroke-linejoin="round"/>
<path d="M0.75 21.3884V17.8684C0.75 15.7884 2.45 14.0685 4.55 14.0685C8.17 14.0685 9.65 11.5085 7.83 8.36854C6.79 6.56854 7.41 4.22853 9.23 3.18853L12.69 1.20854C14.27 0.268535 16.31 0.828535 17.25 2.40854L17.47 2.78853C19.27 5.92853 22.23 5.92853 24.05 2.78853L24.27 2.40854C25.21 0.828535 27.25 0.268535 28.83 1.20854L32.29 3.18853C34.11 4.22853 34.73 6.56854 33.69 8.36854C31.87 11.5085 33.35 14.0685 36.97 14.0685C39.05 14.0685 40.77 15.7684 40.77 17.8684V21.3884C40.77 23.4684 39.07 25.1884 36.97 25.1884C33.35 25.1884 31.87 27.7484 33.69 30.8884C34.73 32.7084 34.11 35.0284 32.29 36.0684L28.83 38.0484C27.25 38.9884 25.21 38.4284 24.27 36.8484L24.05 36.4684C22.25 33.3284 19.29 33.3284 17.47 36.4684L17.25 36.8484C16.31 38.4284 14.27 38.9884 12.69 38.0484L9.23 36.0684C7.41 35.0284 6.79 32.6884 7.83 30.8884C9.65 27.7484 8.17 25.1884 4.55 25.1884C2.45 25.1884 0.75 23.4684 0.75 21.3884Z" stroke="#2E536B" stroke-width="1.5" stroke-miterlimit="10" stroke-linecap="round" stroke-linejoin="round"/>
</svg>
