<svg width="97" height="96" viewBox="0 0 97 96" fill="none" xmlns="http://www.w3.org/2000/svg">
<g clip-path="url(#clip0_10677_1018)">
<path fill-rule="evenodd" clip-rule="evenodd" d="M96.06 50.088C95.82 47.408 96.34 43.8079 96.06 40.688C95.976 39.0983 95.5961 37.5383 94.94 36.088C94.4193 35.0558 93.5571 34.236 92.5 33.768C91.0053 33.1802 89.4486 32.7642 87.86 32.5279C85.326 32.0636 82.7561 31.8227 80.18 31.8079C76.3934 31.8308 72.6122 32.098 68.86 32.608C60.34 33.6079 63.3 34.8479 63.3 25.1279L62.78 12.8479C62.78 10.9013 62.62 8.96795 62.3 7.04795C61.9758 5.46192 61.0964 4.04358 59.82 3.04795C58.935 2.3665 57.9107 1.8885 56.82 1.64795C55.46 1.28795 53.98 1.16795 52.82 0.927949C51.7626 0.748969 50.6924 0.655334 49.62 0.647949H46.46C43.703 0.954437 41.0069 1.66891 38.46 2.76795C36.6267 3.45395 34.9818 4.56423 33.66 6.00795C33.162 6.60435 32.8307 7.32201 32.7 8.08795C32.5785 9.41852 32.5785 10.7574 32.7 12.0879L33.66 31.2879C33.7119 31.5737 33.8625 31.8321 34.0855 32.0181C34.3084 32.2042 34.5896 32.3061 34.88 32.3061C35.1704 32.3061 35.4516 32.2042 35.6745 32.0181C35.8975 31.8321 36.0481 31.5737 36.1 31.2879L35.42 12.0879V9.00795C35.42 8.57521 35.5604 8.15414 35.82 7.80795C36.8759 6.7528 38.1633 5.95844 39.58 5.48795C42.6771 4.18646 46.0236 3.58546 49.38 3.72795C52.2592 3.8301 55.0942 4.46764 57.74 5.60795C58.4024 6.19275 58.8524 6.9804 59.02 7.84795C59.2333 9.59995 59.3267 11.36 59.3 13.1279L59.62 25.1279C59.3133 27.7839 59.14 30.4506 59.1 33.1279C59.06 34.2559 59.4 35.368 60.06 36.2879C60.804 36.9399 61.752 37.32 62.74 37.368C64.9289 37.3295 67.1103 37.102 69.26 36.688C72.5 36.088 75.38 36.088 78.26 36.088C81.1998 36.0502 84.1356 36.3183 87.02 36.888C92.34 37.888 91.62 40.488 91.66 41.088C91.86 44.288 91.3 47.928 91.66 50.608C91.66 52.248 92.06 54.288 92.06 56.208C92.0751 57.2282 91.9127 58.2433 91.58 59.208C91.58 59.728 90.7 59.768 90.14 59.888C88.86 60.208 87.5 60.2879 86.5 60.4879C84.54 60.8079 82.5 61.088 80.26 61.248C76.98 61.488 73.62 61.568 70.62 61.568C69.38 61.568 67.46 61.208 65.78 61.1279C64.808 61.0879 63.832 61.208 62.9 61.4879C62.398 61.6434 61.9491 61.9352 61.603 62.3306C61.257 62.7261 61.0275 63.2098 60.94 63.728C60.8063 64.8707 60.8063 66.0252 60.94 67.1679C60.94 70.0879 61.22 73.048 61.26 76.0079V79.5279C61.156 82.1359 60.82 84.7359 60.26 87.2879C60.0096 88.6925 59.3881 90.0044 58.46 91.0879C58.14 91.4079 57.5 91.0879 56.94 91.0879C56.38 91.0879 55.3 90.8879 54.7 90.8479C51.6627 90.6654 48.6173 90.6654 45.58 90.8479C44.38 90.8559 43.18 90.7893 41.98 90.6479C39.62 90.368 38.5 88.1679 37.7 85.6079C36.6818 81.1251 36.066 76.5603 35.86 71.9679C35.9747 70.1386 35.9747 68.3119 35.86 66.4879C35.7549 65.8644 35.5276 65.2678 35.1913 64.7324C34.8549 64.197 34.4161 63.7333 33.9 63.368C32.9798 62.8003 31.9628 62.407 30.9 62.208C28.7928 61.756 26.6525 61.4751 24.5 61.368C22.06 61.1279 19.5 60.768 16.98 60.368C14.46 59.9679 11.9 59.408 9.5 58.8479L4.06 57.688C3.95321 56.8918 3.88646 56.0908 3.86 55.2879C3.86 53.0479 4.22 50.528 4.22 49.608C4.08292 47.2578 4.17671 44.8998 4.5 42.568C4.59688 41.2408 5.11545 39.9795 5.98 38.9679C6.5111 38.4713 7.15702 38.1139 7.86 37.928C9.22 37.568 10.74 37.528 12.1 37.2879C15.0891 36.8006 18.1115 36.5465 21.14 36.528C24.18 36.5919 27.22 36.872 30.22 37.368C30.5703 37.4039 30.9211 37.3046 31.2006 37.0904C31.4801 36.8762 31.6671 36.5632 31.7233 36.2155C31.7796 35.8679 31.7008 35.5119 31.5031 35.2205C31.3054 34.9291 31.0038 34.7242 30.66 34.6479C27.5173 34.075 24.3338 33.754 21.14 33.688C17.94 33.616 14.74 33.844 11.58 34.368C10.0467 34.4879 8.52667 34.7013 7.02 35.0079C5.77986 35.2894 4.64351 35.9131 3.74 36.8079C2.42956 38.2567 1.59229 40.0708 1.34 42.0079C0.981251 44.5244 0.847389 47.0678 0.94 49.608C0.656583 52.1583 0.509707 54.7219 0.5 57.2879C0.524 58.3079 0.888 59.296 1.54 60.088C2.068 60.568 2.7 60.9199 3.38 61.1279C5.02 61.6479 7.62 61.968 8.7 62.248C11.14 62.8479 13.74 63.448 16.38 63.928C19.02 64.408 21.62 64.8079 24.18 65.0479C25.46 65.0479 27.34 65.3279 29.06 65.6479C29.92 65.7479 30.748 66.0199 31.5 66.4479C31.86 66.6879 31.82 67.2079 31.9 67.688V72.2879C31.9373 78.0207 32.8547 83.7137 34.62 89.1679C35.1433 90.6277 36.0515 91.9189 37.2486 92.9047C38.4456 93.8905 39.887 94.5343 41.42 94.7679C42.748 94.9466 44.0813 95.0399 45.42 95.0479C48.3247 94.897 51.2353 94.897 54.14 95.0479C55.636 95.3146 57.1427 95.408 58.66 95.3279C59.7385 95.2146 60.7501 94.751 61.54 94.0079C63.004 92.3889 64.0238 90.4182 64.5 88.2879C65.156 85.4879 65.54 82.6359 65.66 79.7679C65.74 78.4346 65.74 77.1013 65.66 75.7679C65.66 72.8479 65.38 69.8879 65.38 67.0079V65.6079C67.06 65.6079 69.06 66.0479 70.34 66.0479C73.46 66.0479 76.94 66.048 80.34 65.688C82.66 65.488 84.94 65.2479 87.06 64.8479C89.0322 64.679 90.971 64.2347 92.82 63.528C94.06 62.9879 95.044 62.004 95.58 60.768C96.1683 59.2768 96.4801 57.6909 96.5 56.088C96.5 54.048 96.22 51.8479 96.06 50.088Z" fill="#FCFCFC"/>
</g>
<defs>
<clipPath id="clip0_10677_1018">
<rect width="96" height="96" fill="white" transform="translate(0.5)"/>
</clipPath>
</defs>
</svg>
