<svg width="40" height="70" viewBox="0 0 40 70" fill="none" xmlns="http://www.w3.org/2000/svg">
<path d="M38.1953 38.1838L8.1953 68.1838C7.34993 69.0292 6.20335 69.5041 5.0078 69.5041C3.81226 69.5041 2.66568 69.0292 1.8203 68.1838C0.974927 67.3385 0.5 66.1919 0.5 64.9963C0.5 63.8008 0.974927 62.6542 1.8203 61.8088L28.6366 35.0001L1.82781 8.18383C1.40922 7.76524 1.07717 7.26831 0.850635 6.72139C0.624097 6.17448 0.507499 5.5883 0.507499 4.99633C0.507499 4.40436 0.624097 3.81818 0.850635 3.27127C1.07717 2.72436 1.40922 2.22742 1.82781 1.80883C2.24639 1.39024 2.74333 1.0582 3.29024 0.831662C3.83716 0.605124 4.42333 0.488525 5.01531 0.488525C5.60728 0.488525 6.19346 0.605124 6.74037 0.831662C7.28728 1.0582 7.78422 1.39024 8.20281 1.80883L38.2028 31.8088C38.6218 32.2274 38.9541 32.7245 39.1806 33.2718C39.4071 33.819 39.5233 34.4056 39.5226 34.9979C39.5219 35.5902 39.4043 36.1765 39.1765 36.7232C38.9488 37.2699 38.6153 37.7663 38.1953 38.1838Z" fill="#001422"/>
</svg>
