<svg width="70" height="40" viewBox="0 0 70 40" fill="none" xmlns="http://www.w3.org/2000/svg">
<path d="M31.8047 38.1836L1.8047 8.18359C0.95932 7.33821 0.48439 6.19163 0.48439 4.99609C0.48439 3.80054 0.95932 2.65396 1.8047 1.80859C2.65007 0.963209 3.79665 0.488281 4.9922 0.488281C6.18774 0.488281 7.33432 0.963209 8.1797 1.80859L34.9884 28.6248L61.8047 1.81609C62.2233 1.3975 62.7202 1.06546 63.2671 0.838917C63.814 0.612378 64.4002 0.49578 64.9922 0.49578C65.5842 0.49578 66.1703 0.612378 66.7173 0.838917C67.2642 1.06546 67.7611 1.3975 68.1797 1.81609C68.5983 2.23468 68.9303 2.73161 69.1569 3.27853C69.3834 3.82544 69.5 4.41161 69.5 5.00359C69.5 5.59556 69.3834 6.18174 69.1569 6.72865C68.9303 7.27556 68.5983 7.7725 68.1797 8.19109L38.1797 38.1911C37.7611 38.6101 37.264 38.9424 36.7167 39.1689C36.1695 39.3954 35.5829 39.5116 34.9906 39.5109C34.3984 39.5102 33.8121 39.3926 33.2654 39.1648C32.7186 38.937 32.2223 38.6036 31.8047 38.1836Z" fill="#001422"/>
</svg>
