<svg width="49" height="48" viewBox="0 0 49 48" fill="none" xmlns="http://www.w3.org/2000/svg">
<rect x="0.5" width="48" height="48" rx="8" fill="#1D353E"/>
<g clip-path="url(#clip0_11047_682)">
<path d="M36.4713 26.5963C36.5684 23.6821 36.4179 20.765 36.0213 17.8763C36.0374 17.6699 36.0374 17.4626 36.0213 17.2563C35.8823 16.5873 33.8743 16.2573 33.0253 16.1773C32.9472 16.1688 32.8689 16.1913 32.8072 16.2399C32.7455 16.2885 32.7053 16.3594 32.6953 16.4373C32.6453 17.0973 33.6953 16.4373 35.3033 17.4373C35.2847 18.147 35.3417 18.8567 35.4733 19.5543C35.7133 21.7913 35.5833 23.3403 35.4733 29.2833C34.2861 29.0245 33.0699 28.9236 31.8563 28.9833C29.5941 28.9678 27.3847 29.667 25.5433 30.9813C26.2233 28.3443 27.8813 27.6353 30.2183 26.7963C30.4833 26.7133 30.7603 26.6763 31.0383 26.6863C31.0934 26.8076 31.1891 26.9058 31.309 26.9638C31.4289 27.0218 31.5654 27.036 31.6946 27.0039C31.8239 26.9718 31.9379 26.8955 32.0167 26.7882C32.0956 26.6808 32.1344 26.5492 32.1263 26.4163C31.7463 16.3173 32.1263 14.8993 31.9663 13.9603C31.8063 13.0213 31.1273 12.9103 30.1783 12.7703C29.0127 12.6478 27.8355 12.8399 26.7693 13.3265C25.703 13.8131 24.7866 14.5765 24.1153 15.5373C24.0353 15.7073 23.5653 16.7463 23.5253 16.8563C22.8432 16.3362 22.0559 15.971 21.2183 15.7863C19.0665 15.3092 16.8138 15.6666 14.9153 16.7863C14.5455 17.0269 14.2288 17.3408 13.9849 17.7085C13.7411 18.0762 13.5751 18.49 13.4973 18.9243C12.6173 22.4803 12.0883 23.5303 12.9073 31.0913C12.9073 31.4013 12.9073 31.8813 13.2073 32.1703C13.2745 32.2264 13.3533 32.2671 13.4379 32.2896C13.5226 32.312 13.6111 32.3157 13.6973 32.3003V33.0693C13.8273 34.8673 16.2143 33.7693 18.8413 33.5493C21.0183 33.3793 21.2583 33.8483 23.1863 34.9673C23.9799 35.2655 24.8397 35.3415 25.6733 35.1873C26.3566 35.0843 27.0046 34.8166 27.5613 34.4073C34.1443 29.5633 33.9143 35.2273 35.4533 31.1613C35.5233 30.9746 35.5666 30.7813 35.5833 30.5813C35.6608 30.6317 35.7501 30.661 35.8424 30.6663C35.9347 30.6715 36.0268 30.6525 36.1095 30.6112C36.1922 30.5698 36.2626 30.5076 36.3138 30.4306C36.365 30.3536 36.3952 30.2645 36.4013 30.1723C36.494 28.981 36.5173 27.789 36.4713 26.5963ZM24.3653 17.3863C27.3603 11.7523 31.0773 14.2303 31.2373 14.3903C31.3173 14.6903 30.8673 21.4633 30.8473 22.0823L30.9373 25.5283C29.8294 25.6479 28.7588 25.9976 27.7939 26.555C26.8291 27.1124 25.9913 27.8653 25.3343 28.7653C24.8343 29.6243 25.0043 29.7143 24.9143 29.1453C24.8943 29.0453 24.3243 17.4673 24.3643 17.3873M13.5773 21.7213C13.8673 20.6133 14.2263 17.7963 15.1853 17.4763C17.9823 16.5373 20.7793 16.3073 23.3753 17.7263C23.6843 18.5833 23.8233 19.4923 23.7853 20.4033C23.7853 22.4503 23.8453 28.6333 24.0853 30.4923C22.4951 29.7677 20.7575 29.4252 19.0113 29.4923C17.63 29.6164 16.2792 29.9713 15.0153 30.5423C14.8953 30.5423 14.3353 31.1113 13.9363 31.3313C13.9363 31.1913 13.8263 31.0313 13.8163 30.9513C13.4963 28.2343 13.0273 24.6583 13.5763 21.7213M34.1133 31.5413C31.2363 30.3913 28.9493 32.0203 26.9113 33.4783C26.4757 33.7696 25.9851 33.9687 25.4697 34.0633C24.9543 34.1579 24.425 34.146 23.9143 34.0283C20.0483 31.2913 18.5503 32.5993 15.0543 33.1283C14.8743 33.1283 14.7343 33.2183 14.6443 33.1283C14.5543 33.0383 14.4543 32.4603 14.2243 32.1303C14.6543 31.9103 15.2243 31.5603 15.3643 31.5203C16.8323 31.0613 18.4903 29.9823 22.0863 30.9813C24.7433 31.6713 24.6033 32.8293 25.5023 32.3403C26.8413 31.6203 28.7693 29.4633 34.8023 30.1923C34.7425 30.2656 34.7106 30.3577 34.7123 30.4523C34.1223 31.5113 34.1523 31.4413 34.1123 31.5403" fill="white"/>
<path d="M16.144 20.9918C17.143 20.8518 17.063 20.3618 18.381 20.3618C19.1162 20.4154 19.8415 20.5633 20.539 20.8018C20.729 20.7318 20.869 20.6518 20.869 20.4618C20.869 20.0328 20.269 19.5938 19.36 19.4638C16.733 18.9738 16.483 20.2328 15.984 20.4628C15.9383 20.5004 15.9048 20.5507 15.8876 20.6074C15.8704 20.664 15.8704 20.7244 15.8875 20.7811C15.9046 20.8377 15.9381 20.8881 15.9837 20.9258C16.0293 20.9634 16.0851 20.9868 16.144 20.9928M16.144 24.5178C17.143 24.3778 17.063 23.8888 18.381 23.8888C19.116 23.9418 19.841 24.0898 20.539 24.3288C20.729 24.2688 20.869 24.1788 20.869 23.9888C20.869 23.5588 20.269 23.1288 19.36 22.9898C16.733 22.4998 16.483 23.7498 15.984 23.9888C15.9348 23.9838 15.8852 23.9909 15.8395 24.0097C15.7937 24.0284 15.7534 24.0582 15.7219 24.0963C15.6904 24.1344 15.6689 24.1797 15.6591 24.2281C15.6494 24.2765 15.6518 24.3266 15.6661 24.3739C15.6803 24.4212 15.7061 24.4643 15.741 24.4993C15.7759 24.5342 15.8189 24.56 15.8662 24.5743C15.9135 24.5887 15.9636 24.5911 16.0121 24.5814C16.0605 24.5717 16.1058 24.5502 16.144 24.5188M16.144 28.0838C17.143 27.9438 17.063 27.4548 18.381 27.4548C19.1156 27.5126 19.8404 27.6604 20.539 27.8948C20.729 27.8348 20.869 27.7448 20.869 27.5648C20.869 27.1248 20.269 26.6948 19.36 26.5658C16.733 26.0758 16.483 27.3358 15.984 27.5648C15.9212 27.5556 15.8571 27.5666 15.801 27.5962C15.7449 27.6258 15.6997 27.6725 15.6719 27.7295C15.644 27.7865 15.635 27.8508 15.6462 27.9133C15.6574 27.9757 15.6881 28.033 15.734 28.0768C15.7887 28.1298 15.8615 28.16 15.9376 28.1613C16.0137 28.1626 16.0875 28.1349 16.144 28.0838Z" fill="white"/>
</g>
<defs>
<clipPath id="clip0_11047_682">
<rect width="24" height="24" fill="white" transform="translate(12.5 12)"/>
</clipPath>
</defs>
</svg>
