<svg width="76" height="60" viewBox="0 0 76 60" fill="none" xmlns="http://www.w3.org/2000/svg">
<path d="M29.5625 30.0012C29.5625 25.3413 33.3401 21.5637 38 21.5637C42.6599 21.5637 46.4375 25.3413 46.4375 30.0012C46.4375 34.6611 42.6599 38.4387 38 38.4387C33.3401 38.4387 29.5625 34.6611 29.5625 30.0012Z" fill="#002D4B"/>
<path fill-rule="evenodd" clip-rule="evenodd" d="M0.5 30.0012C0.5 36.1488 2.09362 38.2192 5.28085 42.3599C11.6449 50.6278 22.3179 60.0012 38 60.0012C53.6821 60.0012 64.3551 50.6278 70.7192 42.3599C73.9064 38.2192 75.5 36.1488 75.5 30.0012C75.5 23.8535 73.9064 21.7831 70.7192 17.6424C64.3551 9.3745 53.6821 0.00115967 38 0.00115967C22.3179 0.00115967 11.6449 9.37451 5.28085 17.6424C2.09362 21.7831 0.5 23.8535 0.5 30.0012ZM38 15.9387C30.2335 15.9387 23.9375 22.2347 23.9375 30.0012C23.9375 37.7677 30.2335 44.0637 38 44.0637C45.7665 44.0637 52.0625 37.7677 52.0625 30.0012C52.0625 22.2347 45.7665 15.9387 38 15.9387Z" fill="#002D4B"/>
</svg>
