<svg width="72" height="72" viewBox="0 0 72 72" fill="none" xmlns="http://www.w3.org/2000/svg">
<path d="M0 36C0 16.1178 16.1178 0 36 0C55.8823 0 72 16.1178 72 36C72 55.8823 55.8823 72 36 72C16.1178 72 0 55.8823 0 36Z" fill="#A67906"/>
<path d="M36 19.125C32.6624 19.125 29.3998 20.1147 26.6248 21.969C23.8497 23.8232 21.6868 26.4587 20.4095 29.5422C19.1323 32.6257 18.7981 36.0187 19.4493 39.2921C20.1004 42.5656 21.7076 45.5724 24.0676 47.9324C26.4276 50.2924 29.4344 51.8996 32.7079 52.5508C35.9813 53.2019 39.3743 52.8677 42.4578 51.5905C45.5413 50.3132 48.1768 48.1503 50.0311 45.3752C51.8853 42.6002 52.875 39.3376 52.875 36C52.87 31.526 51.0906 27.2367 47.927 24.0731C44.7634 20.9095 40.474 19.13 36 19.125ZM37.875 48.9891V40.375H41C41.4973 40.375 41.9742 40.1775 42.3258 39.8258C42.6775 39.4742 42.875 38.9973 42.875 38.5C42.875 38.0027 42.6775 37.5258 42.3258 37.1742C41.9742 36.8225 41.4973 36.625 41 36.625H37.875V33.5C37.875 33.0027 38.0726 32.5258 38.4242 32.1742C38.7758 31.8225 39.2527 31.625 39.75 31.625H42.25C42.7473 31.625 43.2242 31.4275 43.5758 31.0758C43.9275 30.7242 44.125 30.2473 44.125 29.75C44.125 29.2527 43.9275 28.7758 43.5758 28.4242C43.2242 28.0725 42.7473 27.875 42.25 27.875H39.75C38.2582 27.875 36.8274 28.4676 35.7725 29.5225C34.7176 30.5774 34.125 32.0082 34.125 33.5V36.625H31C30.5027 36.625 30.0258 36.8225 29.6742 37.1742C29.3226 37.5258 29.125 38.0027 29.125 38.5C29.125 38.9973 29.3226 39.4742 29.6742 39.8258C30.0258 40.1775 30.5027 40.375 31 40.375H34.125V48.9891C30.8408 48.515 27.858 46.8146 25.777 44.23C23.6959 41.6454 22.6711 38.3685 22.9087 35.0588C23.1463 31.749 24.6288 28.6521 27.0577 26.3913C29.4866 24.1306 32.6817 22.8737 36 22.8737C39.3183 22.8737 42.5134 24.1306 44.9423 26.3913C47.3712 28.6521 48.8537 31.749 49.0913 35.0588C49.3289 38.3685 48.3041 41.6454 46.2231 44.23C44.142 46.8146 41.1592 48.515 37.875 48.9891Z" fill="white"/>
</svg>
