<svg width="72" height="72" viewBox="0 0 72 72" fill="none" xmlns="http://www.w3.org/2000/svg">
<path d="M0 36C0 16.1178 16.1178 0 36 0C55.8823 0 72 16.1178 72 36C72 55.8823 55.8823 72 36 72C16.1178 72 0 55.8823 0 36Z" fill="#A67906"/>
<path d="M36 28.5C34.5166 28.5 33.0666 28.9399 31.8332 29.764C30.5999 30.5881 29.6386 31.7594 29.0709 33.1299C28.5032 34.5003 28.3547 36.0083 28.6441 37.4632C28.9335 38.918 29.6478 40.2544 30.6967 41.3033C31.7456 42.3522 33.082 43.0665 34.5368 43.3559C35.9917 43.6453 37.4997 43.4968 38.8701 42.9291C40.2406 42.3614 41.4119 41.4001 42.236 40.1668C43.0601 38.9334 43.5 37.4834 43.5 36C43.4979 34.0115 42.7071 32.1051 41.301 30.699C39.8949 29.2929 37.9885 28.5021 36 28.5ZM36 39.75C35.2583 39.75 34.5333 39.5301 33.9166 39.118C33.2999 38.706 32.8193 38.1203 32.5355 37.4351C32.2516 36.7498 32.1774 35.9958 32.3221 35.2684C32.4667 34.541 32.8239 33.8728 33.3483 33.3483C33.8728 32.8239 34.541 32.4667 35.2684 32.3221C35.9958 32.1774 36.7498 32.2516 37.4351 32.5355C38.1203 32.8193 38.706 33.2999 39.118 33.9166C39.5301 34.5333 39.75 35.2583 39.75 36C39.75 36.9946 39.3549 37.9484 38.6517 38.6517C37.9484 39.3549 36.9946 39.75 36 39.75ZM43.5 19.125H28.5C26.0145 19.1279 23.6316 20.1165 21.8741 21.8741C20.1165 23.6316 19.1279 26.0145 19.125 28.5V43.5C19.1279 45.9855 20.1165 48.3684 21.8741 50.1259C23.6316 51.8835 26.0145 52.8721 28.5 52.875H43.5C45.9855 52.8721 48.3684 51.8835 50.1259 50.1259C51.8835 48.3684 52.8721 45.9855 52.875 43.5V28.5C52.8721 26.0145 51.8835 23.6316 50.1259 21.8741C48.3684 20.1165 45.9855 19.1279 43.5 19.125ZM49.125 43.5C49.125 44.9918 48.5324 46.4226 47.4775 47.4775C46.4226 48.5324 44.9918 49.125 43.5 49.125H28.5C27.0082 49.125 25.5774 48.5324 24.5225 47.4775C23.4676 46.4226 22.875 44.9918 22.875 43.5V28.5C22.875 27.0082 23.4676 25.5774 24.5225 24.5225C25.5774 23.4676 27.0082 22.875 28.5 22.875H43.5C44.9918 22.875 46.4226 23.4676 47.4775 24.5225C48.5324 25.5774 49.125 27.0082 49.125 28.5V43.5ZM46.625 27.875C46.625 28.3695 46.4784 28.8528 46.2037 29.2639C45.929 29.675 45.5385 29.9955 45.0817 30.1847C44.6249 30.3739 44.1222 30.4234 43.6373 30.327C43.1523 30.2305 42.7069 29.9924 42.3572 29.6428C42.0076 29.2931 41.7695 28.8477 41.673 28.3627C41.5766 27.8778 41.6261 27.3751 41.8153 26.9183C42.0045 26.4615 42.325 26.071 42.7361 25.7963C43.1472 25.5216 43.6305 25.375 44.125 25.375C44.788 25.375 45.4239 25.6384 45.8928 26.1072C46.3616 26.5761 46.625 27.212 46.625 27.875Z" fill="white"/>
</svg>
