<svg width="49" height="48" viewBox="0 0 49 48" fill="none" xmlns="http://www.w3.org/2000/svg">
<rect x="0.5" width="48" height="48" rx="8" fill="#1D353E"/>
<path d="M22.774 15.0162C21.351 12.8267 26.032 13.5987 22.9255 16.3937C23.7895 16.4822 24.2765 17.2057 23.712 17.4422C22.779 17.8332 23.199 18.9247 23.567 18.8207" stroke="white" stroke-width="0.5" stroke-linecap="round" stroke-linejoin="round"/>
<path d="M26.449 15.6005C26.9322 15.6005 27.324 15.2006 27.324 14.7075C27.324 14.2143 26.9322 13.8145 26.449 13.8145C25.9657 13.8145 25.574 14.2143 25.574 14.7075C25.574 15.2006 25.9657 15.6005 26.449 15.6005Z" stroke="white" stroke-width="0.5" stroke-linecap="round" stroke-linejoin="round"/>
<path d="M28.986 18.7787C29.8876 18.7787 30.6185 18.0478 30.6185 17.1462C30.6185 16.2446 29.8876 15.5137 28.986 15.5137C28.0844 15.5137 27.3535 16.2446 27.3535 17.1462C27.3535 18.0478 28.0844 18.7787 28.986 18.7787Z" stroke="white" stroke-width="0.5" stroke-linecap="round" stroke-linejoin="round"/>
<path d="M25.3408 18.0847C26.1408 19.2137 27.4868 22.0032 28.7128 20.3727M19.8223 15.4357C20.2968 15.3057 20.8998 15.4327 21.4673 15.4357C21.1458 14.9402 21.2593 14.4212 21.3858 13.8957C20.5498 13.8547 20.3773 14.9422 19.8223 15.4357ZM19.8223 15.4357L19.7758 16.2862C19.3233 16.2512 18.8158 15.8877 18.3993 16.2862C17.9173 16.7467 18.2803 16.9287 18.3523 17.1457M21.7003 16.0077C21.6733 16.4117 21.4248 16.7052 21.1523 16.9867C21.5693 16.9517 22.0038 16.8982 22.0273 17.2567C22.1403 18.5832 21.2523 20.6477 20.5693 18.2252M17.9218 17.8517C17.1508 18.1672 16.8718 18.6607 17.2208 19.3807" stroke="white" stroke-width="0.5" stroke-linecap="round" stroke-linejoin="round"/>
<path d="M21.8405 34.2496C21.8405 34.2496 21.322 33.7066 20.977 33.6066C20.629 33.5051 20.1775 33.9116 19.892 33.6881C19.687 33.5276 19.7635 32.9181 19.7635 32.9181M22.272 32.5446C22.1015 34.2131 24.3805 33.9346 23.8705 31.7626M17.559 21.5276L18.1545 20.9676C17.498 20.8626 17.6495 20.1671 17.312 19.9776C16.596 19.5751 15.892 19.8126 16.841 20.9676C16.649 21.6926 15.28 23.8026 15.307 21.5396M19.775 16.2861C19.0115 17.0511 19.1735 18.1776 19.775 18.0851C20.3305 18.0001 20.521 16.8801 19.775 16.2861Z" stroke="white" stroke-width="0.5" stroke-linecap="round" stroke-linejoin="round"/>
<path d="M18.3876 19.8353C18.5046 17.2568 19.5421 19.6888 19.5161 20.2438C19.1546 20.8008 19.0196 21.4148 19.4016 22.1578C18.7861 22.9028 16.6456 24.2128 15.7836 22.5228M17.5696 25.5538C18.1981 25.3478 13.4266 21.4843 15.5506 25.3438M15.2831 26.1143C15.9331 27.3243 18.1881 26.0018 19.0281 26.1143C20.5231 26.3138 17.8776 29.2128 17.4301 27.4558M23.9401 26.2658C23.2396 27.9583 20.9601 27.4888 21.1516 25.3203M21.1516 25.3203C22.6786 24.9418 24.6931 24.4473 23.9401 26.2653M21.1516 25.3203C22.1831 22.9993 21.0231 23.7593 20.3351 24.2233C19.8471 24.5528 20.0356 26.0083 18.0836 24.2468M18.5966 28.5763C19.3266 30.0703 15.9916 32.0308 15.9131 29.2763C16.9431 30.3983 17.9021 28.7478 18.5966 28.5763Z" stroke="white" stroke-width="0.5" stroke-linecap="round" stroke-linejoin="round"/>
<path d="M17.4425 31.8909C17.8358 31.8909 18.1545 31.7577 18.1545 31.5934C18.1545 31.4291 17.8358 31.2959 17.4425 31.2959C17.0493 31.2959 16.7305 31.4291 16.7305 31.5934C16.7305 31.7577 17.0493 31.8909 17.4425 31.8909Z" stroke="white" stroke-width="0.5" stroke-linecap="round" stroke-linejoin="round"/>
<path d="M31.5183 21.8199C31.9276 21.8199 32.2593 21.4228 32.2593 20.9329C32.2593 20.443 31.9276 20.0459 31.5183 20.0459C31.1091 20.0459 30.7773 20.443 30.7773 20.9329C30.7773 21.4228 31.1091 21.8199 31.5183 21.8199Z" stroke="white" stroke-width="0.5" stroke-linecap="round" stroke-linejoin="round"/>
<path d="M33.3675 24.5215C34.2045 25.7295 34.1115 26.9375 33.6475 28.145M30.369 31.168C30.169 32.4365 29.4275 33.0395 28.4205 33.315M25.3525 32.6265C25.5765 33.7075 26.3005 34.0485 27.3005 33.9805M20.795 31.2845C21.9415 30.266 22.1475 32.3765 23.567 31.063M17.6505 32.475C17.8195 33.3765 18.3155 33.385 18.819 33.3735" stroke="white" stroke-width="0.5" stroke-linecap="round" stroke-linejoin="round"/>
<path d="M21.1885 22.9974C21.4727 22.9974 21.703 22.3417 21.703 21.5329C21.703 20.724 21.4727 20.0684 21.1885 20.0684C20.9044 20.0684 20.674 20.724 20.674 21.5329C20.674 22.3417 20.9044 22.9974 21.1885 22.9974Z" stroke="white" stroke-width="0.5" stroke-linecap="round" stroke-linejoin="round"/>
<path d="M23.255 22.9395C23.604 21.797 22.945 21.7185 21.6155 22.348M21.5635 20.5305L22.9955 19.754M23.894 19.4775C24.0315 20.27 23.9205 20.9015 23.007 21.014M20.347 26.6275L20.382 28.1215M21.712 27.923L23.019 27.9695M23.334 28.8445C20.8065 30.2725 24.5535 31.1235 24.057 29.3M20.365 29.475C21.0965 30.452 19.18 31.645 19.332 30.012M18.76 30.934C18.9225 30.926 19.71 31.4905 19.3525 31.996C18.8375 32.7245 21.306 31.872 21.0005 32.3925M24.979 25.1805C24.979 25.0405 24.9555 23.6635 24.9555 23.6635L27.2305 23.6865M27.6505 24.352L27.6975 26.124M26.449 26.0205V27.3745H25.469M30.8525 25.087L32.364 25.0985M31.518 24.2875V25.7055M28.0355 23.173H28.7125C29.0465 24.388 29.681 23.488 29.6455 23.173M29.0855 26.8025L29.1205 27.9465M30.0425 27.4445L30.065 29.9995M28.619 29.4165L31.5185 29.3815M32.0025 26.4995L31.991 27.521M32.5975 27.6075H31.285M28.4555 27.9465H30.054" stroke="white" stroke-width="0.5" stroke-linecap="round" stroke-linejoin="round"/>
<path d="M26.869 30.5234C27.2567 30.5234 27.571 30.1877 27.571 29.7734C27.571 29.3592 27.2567 29.0234 26.869 29.0234C26.4813 29.0234 26.167 29.3592 26.167 29.7734C26.167 30.1877 26.4813 30.5234 26.869 30.5234Z" stroke="white" stroke-width="0.5" stroke-linecap="round" stroke-linejoin="round"/>
<path d="M26.869 31.9261V33.1631M30.544 22.7876C30.567 23.9596 30.668 25.1781 28.8525 25.2376M31.7515 22.7876H32.7045M32.938 20.9326H33.68M25.6925 22.2931L27.0265 22.3426" stroke="white" stroke-width="0.5" stroke-linecap="round" stroke-linejoin="round"/>
</svg>
