<svg width="96" height="96" viewBox="0 0 96 96" fill="none" xmlns="http://www.w3.org/2000/svg">
<g clip-path="url(#clip0_10677_1088)">
<path fill-rule="evenodd" clip-rule="evenodd" d="M46.9769 44.088C47.2928 44.0142 47.5719 43.83 47.7639 43.5686C47.9559 43.3072 48.0481 42.9858 48.024 42.6623C47.9998 42.3389 47.8609 42.0347 47.6322 41.8047C47.4036 41.5747 47.1002 41.434 46.7769 41.408C43.5705 41.5559 40.4084 40.6146 37.8048 38.7373C35.2012 36.8599 33.3093 34.157 32.4369 31.068C31.2778 27.1571 31.1949 23.006 32.1969 19.052C32.4063 19.2352 32.6342 19.396 32.8769 19.532C36.9731 21.2102 41.4587 21.7026 45.8214 20.9528C50.1842 20.2031 54.248 18.2414 57.5489 15.292C58.2823 16.8653 59.1889 18.332 60.2689 19.692C63.3969 22.696 68.6009 23.26 69.8049 25.1C69.914 25.3508 70.1141 25.5509 70.3649 25.66C69.5764 29.9321 67.4601 33.8465 64.3172 36.8457C61.1743 39.845 57.1653 41.776 52.8609 42.3639C52.5986 42.4648 52.38 42.6546 52.2433 42.9001C52.1065 43.1457 52.0603 43.4315 52.1127 43.7076C52.165 43.9837 52.3127 44.2327 52.5298 44.4111C52.747 44.5896 53.0199 44.6861 53.3009 44.6839C84.0609 39.3599 78.6129 -1.33205 53.0609 0.0279515C16.8569 2.79995 23.4649 46.012 46.9769 44.088ZM70.6049 21.34C66.9292 18.5509 63.0904 15.9837 59.1089 13.652C60.8876 11.7746 62.5303 9.78528 64.0369 7.68395C66.0236 9.35005 67.6358 11.4172 68.7677 13.75C69.8996 16.0827 70.5257 18.6283 70.6049 21.22V21.34ZM61.6729 6.19995C57.9084 10.5501 53.0585 13.8253 47.6169 15.692C44.0129 16.812 36.0009 18.216 33.3969 16.452C33.4493 16.2826 33.4493 16.1013 33.3969 15.932C38.2049 5.59995 53.9449 2.19995 61.6769 6.19995" fill="#595959"/>
<path fill-rule="evenodd" clip-rule="evenodd" d="M44.4105 28.788C44.5333 28.9125 44.6797 29.0114 44.8411 29.079C45.0024 29.1465 45.1756 29.1812 45.3505 29.1812C45.5255 29.1812 45.6986 29.1465 45.86 29.079C46.0214 29.0114 46.1677 28.9125 46.2905 28.788C47.2905 27.828 45.9705 22.7 41.5265 23.104C36.3985 23.664 36.3985 29.272 38.6825 28.948C40.9625 28.628 41.1225 24.504 44.4105 28.788ZM62.6345 29.352C63.6345 28.392 61.2705 22.06 57.2665 22.62C54.9425 23.26 52.2985 27.148 53.7825 28.028C53.9326 28.1891 54.1228 28.3074 54.3337 28.3707C54.5446 28.4339 54.7686 28.4399 54.9825 28.388C55.2689 28.3582 55.534 28.2229 55.7262 28.0085C55.9185 27.7941 56.0241 27.5159 56.0225 27.228C59.1065 24.868 60.3905 31.432 62.6305 29.348M55.1425 36.08C55.3263 35.8121 55.408 35.4873 55.373 35.1643C55.338 34.8413 55.1886 34.5416 54.9518 34.3193C54.7149 34.0969 54.4063 33.9667 54.0818 33.9522C53.7573 33.9376 53.4383 34.0397 53.1825 34.24C52.3825 34.8 51.4985 34.68 48.6545 34.68C47.8257 34.8977 46.9463 34.8126 46.1745 34.44C45.9699 34.2111 45.6842 34.071 45.378 34.0493C45.0718 34.0277 44.7692 34.1262 44.5345 34.324C44.2997 34.5218 44.1513 34.8033 44.1207 35.1087C44.0901 35.4142 44.1797 35.7195 44.3705 35.96C44.9034 36.9144 45.6789 37.7112 46.6186 38.2699C47.5582 38.8285 48.6287 39.1291 49.7218 39.1412C50.8148 39.1534 51.8918 38.8767 52.8436 38.3392C53.7955 37.8017 54.5885 37.0223 55.1425 36.08ZM78.7705 85.82C71.1516 86.6805 63.6545 88.4008 56.4225 90.948C54.2999 91.6493 52.2172 92.4626 50.1745 93.388C50.4145 92.668 53.0585 58.228 51.2145 56.424C50.8305 55.964 50.2883 55.6644 49.6945 55.584C46.8545 55.304 43.7265 48.776 34.1945 45.652C29.9329 44.4472 25.5271 43.8282 21.0985 43.812C19.6185 43.812 16.6545 43.528 15.9345 44.932C15.8638 45.1252 15.8407 45.3327 15.8672 45.5368C15.8937 45.7409 15.969 45.9356 16.0868 46.1044C16.2045 46.2731 16.3612 46.411 16.5436 46.5064C16.726 46.6017 16.9287 46.6516 17.1345 46.652H20.7385C31.4345 49.252 37.8425 50.176 46.7305 57.464C49.4545 60.028 46.4105 68.04 47.5305 91.668C44.616 90.4717 41.6017 89.5347 38.5225 88.868C31.0305 86.1399 24.6225 86.984 17.5345 86.14H12.4505C10.6865 86.14 10.2065 86.14 10.2065 83.34C10.2065 79.332 11.4465 77.172 9.56653 77.012C9.2568 76.9994 8.95359 77.1033 8.71666 77.3032C8.47974 77.5031 8.32628 77.7845 8.28653 78.092C7.80653 82.376 4.99854 87.7439 10.9265 89.588C12.8892 89.9533 14.8652 90.2066 16.8545 90.348C23.8625 91.708 30.9505 90.748 37.3985 92.428C41.0704 94.2412 45.0527 95.342 49.1345 95.672C49.1345 96.112 50.5745 97.312 78.6545 89.064C79.5132 88.6533 80.2865 88.1199 80.9745 87.464C81.0741 87.1752 81.0793 86.8622 80.9893 86.5703C80.8993 86.2783 80.7188 86.0226 80.4738 85.84C80.2289 85.6574 79.9323 85.5575 79.6268 85.5546C79.3213 85.5517 79.0229 85.646 78.7745 85.824" fill="#595959"/>
<path fill-rule="evenodd" clip-rule="evenodd" d="M24.345 61.6319C23.985 60.1119 23.465 57.3439 21.345 56.1039C17.1267 54.5892 12.4928 54.7177 8.36498 56.4639C7.03103 57.6402 5.98606 59.1081 5.31116 60.7536C4.63627 62.3991 4.34959 64.1779 4.47339 65.9521C4.59719 67.7263 5.12813 69.4482 6.02502 70.984C6.9219 72.5198 8.16059 73.8283 9.64498 74.8079C11.0497 76.0325 12.7597 76.8539 14.5936 77.1849C16.4275 77.516 18.3168 77.3442 20.061 76.6879C25.349 73.8479 26.029 67.4759 24.345 61.6319ZM17.857 72.8399C17.4533 73.0161 17.0175 73.1071 16.577 73.1071C16.1365 73.1071 15.7007 73.0161 15.297 72.8399C6.64498 70.5199 6.12498 62.5479 10.249 58.3839C13.009 59.9839 17.377 57.8239 19.381 59.1839C19.981 59.6639 22.897 70.0359 17.857 72.8399ZM11.969 52.6599C12.529 49.2959 13.049 44.6479 10.809 44.6479C10.449 44.6479 9.96898 44.6479 9.72898 45.0079C8.96297 47.419 8.55858 49.9303 8.52898 52.4599C8.72898 55.2599 11.729 54.7399 11.969 52.6599ZM81.657 48.0919C82.057 49.8559 82.337 51.2159 82.577 52.3399C83.577 55.0599 86.225 54.2999 85.745 51.2199C85.1915 49.1451 84.8168 47.0267 84.625 44.8879C84.5442 43.6695 84.0808 42.5076 83.301 41.5679C82.5875 40.9661 81.6682 40.665 80.737 40.7279C76.0796 41.315 71.5169 42.498 67.161 44.2479C64.037 45.4879 51.141 51.8999 50.861 54.2199C50.8434 54.5365 50.9404 54.8488 51.1342 55.0997C51.3279 55.3506 51.6055 55.5234 51.9162 55.5865C52.2269 55.6497 52.5499 55.5988 52.8262 55.4434C53.1025 55.2879 53.3136 55.0382 53.421 54.7399C60.8679 50.9996 68.6797 48.0347 76.733 45.8919C79.653 45.0919 80.333 42.5679 81.657 48.0919ZM83.021 79.2119C82.9096 82.0406 83.2609 84.8685 84.061 87.5839C84.421 88.0639 85.861 88.3839 86.501 86.5039C87.129 84.3039 87.397 82.0199 87.305 79.7319C87.1353 79.3279 86.8618 78.9759 86.5121 78.7117C86.1624 78.4475 85.7491 78.2805 85.314 78.2277C84.879 78.1749 84.4377 78.2381 84.0349 78.411C83.6322 78.5839 83.2824 78.8602 83.021 79.2119ZM91.469 61.9519C91.1476 59.4978 89.938 57.2465 88.069 55.6239C87.629 55.2239 87.309 55.3039 86.465 55.2639C85.8806 55.2345 85.2963 55.322 84.7461 55.5212C84.196 55.7204 83.6911 56.0273 83.261 56.4239C81.501 60.4279 76.853 57.7839 73.609 60.4279C72.7872 61.2686 72.1716 62.2885 71.8107 63.4073C71.4498 64.5262 71.3534 65.7135 71.529 66.8759C72.3102 70.2954 74.1935 73.3635 76.889 75.6079C77.7117 76.4323 78.7415 77.0197 79.8698 77.3083C80.9982 77.5969 82.1835 77.576 83.301 77.2479C89.109 75.5279 92.073 66.9559 91.469 61.9519ZM80.057 72.1239C78.6553 69.8675 77.3201 67.5705 76.053 65.2359C76.053 63.8759 76.053 63.1959 76.893 62.8759C79.213 61.7919 84.501 61.8719 86.225 57.1439C87.0594 57.9503 87.7013 58.9344 88.103 60.023C88.5046 61.1117 88.6557 62.2769 88.545 63.4319C88.1956 65.7917 87.3356 68.0468 86.025 70.0399C84.585 72.1239 81.737 74.0079 80.057 72.1239Z" fill="#595959"/>
</g>
<defs>
<clipPath id="clip0_10677_1088">
<rect width="96" height="96" fill="white"/>
</clipPath>
</defs>
</svg>
