<svg width="72" height="72" viewBox="0 0 72 72" fill="none" xmlns="http://www.w3.org/2000/svg">
<path d="M0 36C0 16.1178 16.1178 0 36 0C55.8823 0 72 16.1178 72 36C72 55.8823 55.8823 72 36 72C16.1178 72 0 55.8823 0 36Z" fill="#A67906"/>
<path d="M49.75 19.125H22.25C21.4212 19.125 20.6263 19.4542 20.0403 20.0403C19.4542 20.6263 19.125 21.4212 19.125 22.25V49.75C19.125 50.5788 19.4542 51.3737 20.0403 51.9597C20.6263 52.5458 21.4212 52.875 22.25 52.875H49.75C50.5788 52.875 51.3737 52.5458 51.9597 51.9597C52.5458 51.3737 52.875 50.5788 52.875 49.75V22.25C52.875 21.4212 52.5458 20.6263 51.9597 20.0403C51.3737 19.4542 50.5788 19.125 49.75 19.125ZM49.125 49.125H22.875V22.875H49.125V49.125ZM33.5 43.5V34.75C33.5004 34.3603 33.6221 33.9805 33.8483 33.6632C34.0746 33.3459 34.394 33.107 34.7623 32.9797C35.1305 32.8524 35.5293 32.8429 35.9032 32.9527C36.2771 33.0625 36.6075 33.286 36.8484 33.5922C37.8008 33.093 38.8658 32.848 39.9406 32.8807C41.0153 32.9135 42.0634 33.223 42.9836 33.7793C43.9037 34.3356 44.6648 35.1199 45.1932 36.0564C45.7216 36.9928 45.9995 38.0498 46 39.125V43.5C46 43.9973 45.8025 44.4742 45.4508 44.8258C45.0992 45.1775 44.6223 45.375 44.125 45.375C43.6277 45.375 43.1508 45.1775 42.7992 44.8258C42.4475 44.4742 42.25 43.9973 42.25 43.5V39.125C42.25 38.462 41.9866 37.8261 41.5178 37.3572C41.0489 36.8884 40.413 36.625 39.75 36.625C39.087 36.625 38.4511 36.8884 37.9822 37.3572C37.5134 37.8261 37.25 38.462 37.25 39.125V43.5C37.25 43.9973 37.0525 44.4742 36.7008 44.8258C36.3492 45.1775 35.8723 45.375 35.375 45.375C34.8777 45.375 34.4008 45.1775 34.0492 44.8258C33.6975 44.4742 33.5 43.9973 33.5 43.5ZM31 34.75V43.5C31 43.9973 30.8025 44.4742 30.4508 44.8258C30.0992 45.1775 29.6223 45.375 29.125 45.375C28.6277 45.375 28.1508 45.1775 27.7992 44.8258C27.4475 44.4742 27.25 43.9973 27.25 43.5V34.75C27.25 34.2527 27.4475 33.7758 27.7992 33.4242C28.1508 33.0725 28.6277 32.875 29.125 32.875C29.6223 32.875 30.0992 33.0725 30.4508 33.4242C30.8025 33.7758 31 34.2527 31 34.75ZM26.625 28.5C26.625 28.0055 26.7716 27.5222 27.0463 27.1111C27.321 26.7 27.7115 26.3795 28.1683 26.1903C28.6251 26.0011 29.1278 25.9516 29.6127 26.048C30.0977 26.1445 30.5431 26.3826 30.8928 26.7322C31.2424 27.0819 31.4805 27.5273 31.577 28.0123C31.6734 28.4972 31.6239 28.9999 31.4347 29.4567C31.2455 29.9135 30.925 30.304 30.5139 30.5787C30.1028 30.8534 29.6195 31 29.125 31C28.462 31 27.8261 30.7366 27.3572 30.2678C26.8884 29.7989 26.625 29.163 26.625 28.5Z" fill="white"/>
</svg>
