<svg width="87" height="84" viewBox="0 0 87 84" fill="none" xmlns="http://www.w3.org/2000/svg">
<path fill-rule="evenodd" clip-rule="evenodd" d="M86.8047 42C86.8047 43.7259 85.4056 45.125 83.6797 45.125H37.9607L46.1301 52.1274C47.4405 53.2506 47.5922 55.2234 46.469 56.5338C45.3458 57.8442 43.373 57.9959 42.0626 56.8727L27.4793 44.3727C26.7866 43.779 26.388 42.9123 26.388 42.0001C26.388 41.0878 26.7866 40.2211 27.4793 39.6274L42.0626 27.1274C43.373 26.0042 45.3458 26.1559 46.469 27.4663C47.5922 28.7767 47.4405 30.7495 46.1301 31.8727L37.9607 38.8751L83.6797 38.875C85.4056 38.875 86.8047 40.2742 86.8047 42Z" fill="#888888"/>
<path d="M54.513 32.6252H52.9369C54.0141 29.5686 53.4751 26.0366 51.2144 23.399C47.8448 19.4679 41.9264 19.0126 37.9952 22.3822L23.4119 34.8822C21.3339 36.6633 20.138 39.2634 20.138 42.0002C20.138 44.737 21.3339 47.3372 23.4119 49.1182L37.9952 61.6182C41.9264 64.9878 47.8448 64.5326 51.2144 60.6014C53.4751 57.9639 54.0141 54.4319 52.9369 51.3752H54.513V58.6667C54.513 70.4518 54.513 76.3444 50.8519 80.0056C47.1907 83.6667 41.2981 83.6667 29.513 83.6667H25.3463C13.5612 83.6667 7.66866 83.6667 4.0075 80.0056C0.346336 76.3444 0.346332 70.4518 0.346332 58.6668V25.3334C0.346332 13.5483 0.346332 7.6557 4.00749 3.99454C7.66865 0.333378 13.5612 0.333378 25.3463 0.333378H29.513C41.2981 0.333378 47.1907 0.333378 50.8519 3.99454C54.513 7.65571 54.513 13.5483 54.513 25.3334L54.513 32.6252Z" fill="#888888"/>
</svg>
