<svg width="49" height="48" viewBox="0 0 49 48" fill="none" xmlns="http://www.w3.org/2000/svg">
<rect x="0.5" width="48" height="48" rx="8" fill="#1D353E"/>
<g clip-path="url(#clip0_11047_661)">
<path d="M33.3513 26.5463C33.1908 26.4449 33.0073 26.3858 32.8178 26.3745C32.6283 26.3632 32.439 26.4001 32.2676 26.4816C32.0316 26.594 31.7703 26.6429 31.5096 26.6232C31.2489 26.6036 30.9979 26.5161 30.7814 26.3696C30.5649 26.223 30.3905 26.0224 30.2754 25.7877C30.1603 25.5529 30.1086 25.2922 30.1254 25.0313C30.1509 24.6699 30.3048 24.3296 30.5593 24.0717C30.8137 23.8139 31.1519 23.6554 31.5129 23.625C31.7709 23.6057 32.0294 23.6542 32.2629 23.7656C32.4343 23.848 32.6238 23.8857 32.8136 23.875C33.0035 23.8643 33.1876 23.8056 33.3486 23.7045C33.5097 23.6034 33.6425 23.4631 33.7346 23.2967C33.8267 23.1303 33.8752 22.9433 33.8754 22.7531V18.75C33.8754 18.2527 33.6778 17.7758 33.3262 17.4242C32.9746 17.0726 32.4977 16.875 32.0004 16.875H29.0004C28.9996 16.3628 28.8942 15.8562 28.6908 15.3861C28.4873 14.9161 28.1901 14.4925 27.8173 14.1413C27.4444 13.7885 27.0025 13.5168 26.5194 13.3432C26.0363 13.1696 25.5225 13.0978 25.0104 13.1325C24.1069 13.1919 23.2552 13.5755 22.612 14.2129C21.9688 14.8502 21.5774 15.6983 21.5098 16.6013C21.5004 16.6941 21.5004 16.7813 21.5004 16.875H18.5004C18.0031 16.875 17.5262 17.0726 17.1746 17.4242C16.8229 17.7758 16.6254 18.2527 16.6254 18.75V21.375C16.1132 21.3758 15.6066 21.4812 15.1365 21.6846C14.6664 21.8881 14.2428 22.1853 13.8916 22.5581C13.4065 23.0746 13.0777 23.718 12.9432 24.4136C12.8087 25.1093 12.874 25.8289 13.1317 26.489C13.3893 27.149 13.8287 27.7226 14.3989 28.1432C14.9691 28.5639 15.6468 28.8143 16.3535 28.8656C16.4439 28.8734 16.5347 28.8765 16.6254 28.875V31.5C16.6254 31.9973 16.8229 32.4742 17.1746 32.8258C17.5262 33.1775 18.0031 33.375 18.5004 33.375H32.0004C32.4977 33.375 32.9746 33.1775 33.3262 32.8258C33.6778 32.4742 33.8754 31.9973 33.8754 31.5V27.4978C33.8755 27.3079 33.8275 27.121 33.7358 26.9546C33.6442 26.7882 33.5119 26.6477 33.3513 26.5463ZM31.6254 31.125H18.8754V27.4978C18.8754 27.308 18.8274 27.1212 18.7358 26.9549C18.6442 26.7886 18.512 26.6482 18.3515 26.5467C18.191 26.4453 18.0074 26.3861 17.8179 26.3747C17.6284 26.3633 17.4391 26.4001 17.2676 26.4816C17.0329 26.5945 16.7727 26.644 16.5129 26.625C16.1528 26.5948 15.8153 26.4372 15.561 26.1804C15.3067 25.9237 15.1522 25.5847 15.1254 25.2244C15.108 24.9635 15.1591 24.7026 15.2737 24.4675C15.3883 24.2325 15.5623 24.0315 15.7785 23.8844C15.9947 23.7374 16.2456 23.6494 16.5063 23.6292C16.767 23.609 17.0285 23.6574 17.2648 23.7694C17.4364 23.8515 17.626 23.8888 17.8159 23.8777C18.0058 23.8666 18.1898 23.8076 18.3507 23.706C18.5116 23.6045 18.6441 23.4639 18.7359 23.2972C18.8276 23.1306 18.8756 22.9434 18.8754 22.7531V19.125H22.8785C23.0683 19.1249 23.255 19.0767 23.4211 18.9851C23.5873 18.8934 23.7276 18.7612 23.8289 18.6007C23.9302 18.4402 23.9893 18.2567 24.0007 18.0673C24.012 17.8779 23.9753 17.6886 23.8938 17.5172C23.7809 17.2825 23.7314 17.0223 23.7504 16.7625C23.7804 16.4024 23.938 16.0647 24.1948 15.8104C24.4515 15.5561 24.7906 15.4017 25.151 15.375C25.4119 15.3576 25.6728 15.4086 25.9078 15.523C26.1429 15.6375 26.344 15.8114 26.4911 16.0275C26.6382 16.2436 26.7263 16.4944 26.7466 16.7551C26.767 17.0157 26.7188 17.2771 26.607 17.5135C26.5246 17.6851 26.4872 17.8748 26.4982 18.0649C26.5091 18.2549 26.5682 18.4391 26.6697 18.6001C26.7712 18.7611 26.912 18.8937 27.0787 18.9855C27.2455 19.0774 27.4328 19.1253 27.6232 19.125H31.6254V21.375C31.5316 21.375 31.4445 21.375 31.3535 21.3853C30.3862 21.4572 29.4844 21.9011 28.8374 22.6238C28.1904 23.3465 27.8486 24.2917 27.8838 25.2611C27.919 26.2304 28.3284 27.1484 29.0261 27.8223C29.7238 28.4961 30.6554 28.8735 31.6254 28.875V31.125Z" fill="#FCFCFC"/>
</g>
<defs>
<clipPath id="clip0_11047_661">
<rect width="24" height="24" fill="white" transform="translate(12.5 12)"/>
</clipPath>
</defs>
</svg>
