<svg width="50" height="40" viewBox="0 0 50 40" fill="none" xmlns="http://www.w3.org/2000/svg">
<path d="M25.172 1.17212C24.4221 1.92223 24.0009 2.93947 24.0009 4.00012C24.0009 5.06078 24.4221 6.07801 25.172 6.82812L34.344 16.0001H4C2.93913 16.0001 1.92172 16.4216 1.17157 17.1717C0.421428 17.9218 0 18.9393 0 20.0001C0 21.061 0.421428 22.0784 1.17157 22.8285C1.92172 23.5787 2.93913 24.0001 4 24.0001H34.344L25.172 33.1721C24.422 33.9222 24.0006 34.9394 24.0006 36.0001C24.0006 37.0608 24.422 38.0781 25.172 38.8281C25.922 39.5782 26.9393 39.9995 28 39.9995C29.0607 39.9995 30.078 39.5782 30.828 38.8281L49.656 20.0001L30.828 1.17212C30.0779 0.422239 29.0607 0.000976562 28 0.000976562C26.9393 0.000976562 25.9221 0.422239 25.172 1.17212Z" fill="white"/>
</svg>
