<svg width="71" height="60" viewBox="0 0 71 60" fill="none" xmlns="http://www.w3.org/2000/svg">
<path d="M70.5558 29.5806C70.5522 26.4743 69.7029 23.4275 68.0991 20.7672C66.4953 18.1069 64.1974 15.9334 61.4521 14.4799C61.3882 11.4647 60.4042 8.54104 58.632 6.10075C56.8599 3.66045 54.3842 1.82009 51.5368 0.826278C48.6894 -0.167538 45.6062 -0.26733 42.7005 0.540276C39.7947 1.34788 37.2052 3.0243 35.279 5.34489C33.3527 3.0243 30.7632 1.34788 27.8575 0.540276C24.9518 -0.26733 21.8686 -0.167538 19.0212 0.826278C16.1737 1.82009 13.6981 3.66045 11.9259 6.10075C10.1538 8.54104 9.16979 11.4647 9.10585 14.4799C6.3577 15.9294 4.05732 18.1016 2.45267 20.7621C0.848031 23.4227 0 26.4708 0 29.5778C0 32.6848 0.848031 35.7329 2.45267 38.3934C4.05732 41.054 6.3577 43.2262 9.10585 44.6757C9.16867 47.6914 10.1518 50.6158 11.9236 53.057C13.6953 55.4981 16.1709 57.3394 19.0186 58.3339C21.8663 59.3284 24.9499 59.4287 27.8561 58.6213C30.7624 57.8138 33.3524 56.1373 35.279 53.8164C37.2055 56.1373 39.7955 57.8138 42.7018 58.6213C45.6081 59.4287 48.6917 59.3284 51.5394 58.3339C54.387 57.3394 56.8627 55.4981 58.6344 53.057C60.4061 50.6158 61.3893 47.6914 61.4521 44.6757C64.1984 43.2249 66.4972 41.0528 68.1013 38.393C69.7053 35.7333 70.5539 32.6866 70.5558 29.5806ZM23.8994 52.3399C22.1805 52.3396 20.5079 51.7835 19.1312 50.7544C17.7545 49.7253 16.7476 48.2786 16.2608 46.6301C16.5453 46.6301 16.7985 46.6501 17.0716 46.6501H19.3475C20.2529 46.6501 21.1213 46.2904 21.7615 45.6502C22.4017 45.0099 22.7614 44.1416 22.7614 43.2362C22.7614 42.3308 22.4017 41.4624 21.7615 40.8222C21.1213 40.182 20.2529 39.8223 19.3475 39.8223H17.0716C14.6544 39.824 12.3144 38.9706 10.4658 37.4132C8.61715 35.8558 7.37894 33.6947 6.97023 31.3123C6.56152 28.9299 7.00866 26.4797 8.23253 24.3952C9.4564 22.3107 11.3781 20.7262 13.6577 19.9222C14.3236 19.6868 14.9001 19.2506 15.3077 18.6738C15.7153 18.097 15.934 17.408 15.9336 16.7017V14.7871C15.9336 12.6745 16.7729 10.6484 18.2667 9.1545C19.7606 7.66064 21.7867 6.82139 23.8994 6.82139C26.012 6.82139 28.0381 7.66064 29.532 9.1545C31.0258 10.6484 31.8651 12.6745 31.8651 14.7871V31.9078C31.2123 31.4891 30.5274 31.1229 29.8168 30.8125C28.9868 30.4503 28.0469 30.4327 27.204 30.7635C26.361 31.0942 25.684 31.7463 25.3218 32.5763C24.9596 33.4063 24.942 34.3461 25.2728 35.1891C25.6036 36.0321 26.2557 36.7091 27.0857 37.0713C28.7642 37.8025 30.1397 39.0897 30.9805 40.7161C31.8213 42.3426 32.0761 44.2091 31.7021 46.0014C31.328 47.7937 30.348 49.4025 28.9269 50.5569C27.5057 51.7114 25.7303 52.341 23.8994 52.3399ZM53.4864 39.8223H51.2104C50.305 39.8223 49.4367 40.182 48.7965 40.8222C48.1562 41.4624 47.7966 42.3308 47.7966 43.2362C47.7966 44.1416 48.1562 45.0099 48.7965 45.6502C49.4367 46.2904 50.305 46.6501 51.2104 46.6501H53.4864C53.7709 46.6501 54.0269 46.6501 54.2972 46.6301C53.918 47.9154 53.2207 49.0842 52.2698 50.0284C51.3189 50.9726 50.1452 51.6617 48.8574 52.0318C47.5695 52.402 46.209 52.4412 44.9019 52.146C43.5948 51.8507 42.3833 51.2305 41.3796 50.3427C40.3759 49.455 39.6123 48.3283 39.1596 47.0671C38.7069 45.8058 38.5797 44.4508 38.7898 43.1273C38.9998 41.8039 39.5404 40.5548 40.3613 39.4957C41.1823 38.4366 42.2572 37.6018 43.4865 37.0684C44.3165 36.7063 44.9686 36.0292 45.2994 35.1862C45.6302 34.3433 45.6125 33.4034 45.2504 32.5735C44.8882 31.7435 44.2112 31.0914 43.3682 30.7606C42.5252 30.4298 41.5854 30.4475 40.7554 30.8096C40.0448 31.1201 39.3599 31.4863 38.7071 31.9049V14.7871C38.7071 12.6745 39.5463 10.6484 41.0402 9.1545C42.5341 7.66064 44.5602 6.82139 46.6728 6.82139C48.7855 6.82139 50.8116 7.66064 52.3054 9.1545C53.7993 10.6484 54.6386 12.6745 54.6386 14.7871V16.7017C54.6382 17.408 54.8569 18.097 55.2645 18.6738C55.6721 19.2506 56.2486 19.6868 56.9145 19.9222C59.2043 20.719 61.1372 22.3022 62.3693 24.3903C63.6013 26.4784 64.0527 28.9358 63.6431 31.3254C63.2334 33.715 61.9893 35.8819 60.1321 37.4403C58.2749 38.9988 55.925 39.8479 53.5006 39.8365L53.4864 39.8223ZM58.0382 27.3047C58.0382 28.2101 57.6785 29.0785 57.0383 29.7187C56.3981 30.3589 55.5297 30.7186 54.6243 30.7186C51.6063 30.7186 48.7118 29.5197 46.5777 27.3856C44.4436 25.2515 43.2447 22.357 43.2447 19.339V18.201C43.2447 17.2956 43.6044 16.4273 44.2446 15.787C44.8848 15.1468 45.7532 14.7871 46.6586 14.7871C47.564 14.7871 48.4323 15.1468 49.0726 15.787C49.7128 16.4273 50.0725 17.2956 50.0725 18.201V19.339C50.0725 20.5462 50.552 21.704 51.4057 22.5576C52.2593 23.4113 53.4171 23.8908 54.6243 23.8908C55.5297 23.8908 56.3981 24.2505 57.0383 24.8907C57.6785 25.531 58.0382 26.3993 58.0382 27.3047ZM27.3132 19.339C27.3132 22.357 26.1143 25.2515 23.9802 27.3856C21.8461 29.5197 18.9517 30.7186 15.9336 30.7186C15.0282 30.7186 14.1599 30.3589 13.5196 29.7187C12.8794 29.0785 12.5197 28.2101 12.5197 27.3047C12.5197 26.3993 12.8794 25.531 13.5196 24.8907C14.1599 24.2505 15.0282 23.8908 15.9336 23.8908C17.1409 23.8908 18.2986 23.4113 19.1523 22.5576C20.0059 21.704 20.4855 20.5462 20.4855 19.339V18.201C20.4855 17.2956 20.8451 16.4273 21.4854 15.787C22.1256 15.1468 22.9939 14.7871 23.8994 14.7871C24.8048 14.7871 25.6731 15.1468 26.3133 15.787C26.9536 16.4273 27.3132 17.2956 27.3132 18.201V19.339Z" fill="white"/>
</svg>
