<svg width="96" height="96" viewBox="0 0 96 96" fill="none" xmlns="http://www.w3.org/2000/svg">
<path d="M41.0998 12.0641C35.4078 3.30606 54.1318 6.39405 41.7058 17.5741C45.1618 17.9281 47.1098 20.8221 44.8518 21.7681C41.1198 23.3321 42.7998 27.6981 44.2718 27.2821" stroke="#595959" stroke-width="2" stroke-linecap="round" stroke-linejoin="round"/>
<path d="M55.7969 14.4001C57.7299 14.4001 59.2969 12.8009 59.2969 10.8281C59.2969 8.85534 57.7299 7.2561 55.7969 7.2561C53.8639 7.2561 52.2969 8.85534 52.2969 10.8281C52.2969 12.8009 53.8639 14.4001 55.7969 14.4001Z" stroke="#595959" stroke-width="2" stroke-linecap="round" stroke-linejoin="round"/>
<path d="M65.9441 27.114C69.5505 27.114 72.4741 24.1904 72.4741 20.584C72.4741 16.9775 69.5505 14.054 65.9441 14.054C62.3376 14.054 59.4141 16.9775 59.4141 20.584C59.4141 24.1904 62.3376 27.114 65.9441 27.114Z" stroke="#595959" stroke-width="2" stroke-linecap="round" stroke-linejoin="round"/>
<path d="M51.3631 24.3401C54.5631 28.8561 59.9471 40.0141 64.8511 33.4921M29.2891 13.7441C31.1871 13.2241 33.5991 13.7321 35.8691 13.7441C34.5831 11.7621 35.0371 9.6861 35.5431 7.5841C32.1991 7.4201 31.5091 11.7701 29.2891 13.7441ZM29.2891 13.7441L29.1031 17.1461C27.2931 17.0061 25.2631 15.5521 23.5971 17.1461C21.6691 18.9881 23.1211 19.7161 23.4091 20.5841M36.8011 16.0321C36.6931 17.6481 35.6991 18.8221 34.6091 19.9481C36.2771 19.8081 38.0151 19.5941 38.1091 21.0281C38.5611 26.3341 35.0091 34.5921 32.2771 24.9021M21.6871 23.4081C18.6031 24.6701 17.4871 26.6441 18.8831 29.5241" stroke="#595959" stroke-width="2" stroke-linecap="round" stroke-linejoin="round"/>
<path d="M37.3621 89C37.3621 89 35.2881 86.828 33.9081 86.428C32.5161 86.022 30.7101 87.648 29.5681 86.754C28.7481 86.112 29.0541 83.674 29.0541 83.674M39.0881 82.18C38.4061 88.854 47.5221 87.74 45.4821 79.052M20.2361 38.112L22.6181 35.872C19.9921 35.452 20.5981 32.67 19.2481 31.912C16.3841 30.302 13.5681 31.252 17.3641 35.872C16.5961 38.772 11.1201 47.212 11.2281 38.16M29.1001 17.146C26.0461 20.206 26.6941 24.712 29.1001 24.342C31.3221 24.002 32.0841 19.522 29.1001 17.146Z" stroke="#595959" stroke-width="2" stroke-linecap="round" stroke-linejoin="round"/>
<path d="M23.5505 31.3439C24.0185 21.0299 28.1685 30.7579 28.0645 32.9779C26.6185 35.2059 26.0785 37.6619 27.6065 40.6339C25.1445 43.6139 16.5825 48.8539 13.1345 42.0939M20.2785 54.2179C22.7925 53.3939 3.70654 37.9399 12.2025 53.3779M11.1325 56.4599C13.7325 61.2999 22.7525 56.0099 26.1125 56.4599C32.0925 57.2579 21.5105 68.8539 19.7205 61.8259M45.7605 57.0659C42.9585 63.8359 33.8405 61.9579 34.6065 53.2839M34.6065 53.2839C40.7145 51.7699 48.7725 49.7919 45.7605 57.0639M34.6065 53.2839C38.7325 43.9999 34.0925 47.0399 31.3405 48.8959C29.3885 50.2139 30.1425 56.0359 22.3345 48.9899M24.3865 66.3079C27.3065 72.2839 13.9665 80.1259 13.6525 69.1079C17.7725 73.5959 21.6085 66.9939 24.3865 66.3079Z" stroke="#595959" stroke-width="2" stroke-linecap="round" stroke-linejoin="round"/>
<path d="M19.7699 79.5641C21.3428 79.5641 22.6179 79.0313 22.6179 78.3741C22.6179 77.7169 21.3428 77.1841 19.7699 77.1841C18.197 77.1841 16.9219 77.7169 16.9219 78.3741C16.9219 79.0313 18.197 79.5641 19.7699 79.5641Z" stroke="#595959" stroke-width="2" stroke-linecap="round" stroke-linejoin="round"/>
<path d="M76.0734 39.2801C77.7103 39.2801 79.0374 37.6916 79.0374 35.7321C79.0374 33.7726 77.7103 32.1841 76.0734 32.1841C74.4364 32.1841 73.1094 33.7726 73.1094 35.7321C73.1094 37.6916 74.4364 39.2801 76.0734 39.2801Z" stroke="#595959" stroke-width="2" stroke-linecap="round" stroke-linejoin="round"/>
<path d="M83.4696 50.0859C86.8176 54.9179 86.4456 59.7499 84.5896 64.5799M71.4756 76.6719C70.6756 81.7459 67.7096 84.1579 63.6816 85.2599M51.4096 82.5059C52.3056 86.8299 55.2016 88.1939 59.2016 87.9219M33.1796 77.1379C37.7656 73.0639 38.5896 81.5059 44.2676 76.2519M20.6016 81.8999C21.2776 85.5059 23.2616 85.5399 25.2756 85.4939" stroke="#595959" stroke-width="2" stroke-linecap="round" stroke-linejoin="round"/>
<path d="M34.7533 43.9899C35.8899 43.9899 36.8113 41.3672 36.8113 38.1319C36.8113 34.8966 35.8899 32.2739 34.7533 32.2739C33.6167 32.2739 32.6953 34.8966 32.6953 38.1319C32.6953 41.3672 33.6167 43.9899 34.7533 43.9899Z" stroke="#595959" stroke-width="2" stroke-linecap="round" stroke-linejoin="round"/>
<path d="M43.0191 43.7601C44.4151 39.1901 41.7791 38.8761 36.4611 41.3941M36.2531 34.1241L41.9811 31.0181M45.5751 29.9121C46.1251 33.0821 45.6811 35.6081 42.0271 36.0581M31.3871 58.5121L31.5271 64.4881M36.8471 63.6941L42.0751 63.8801M43.3351 67.3801C33.2251 73.0921 48.2131 76.4961 46.2271 69.2021M31.4591 69.9021C34.3851 73.8101 26.7191 78.5821 27.3271 72.0501M25.0391 75.7381C25.6891 75.7061 28.8391 77.9641 27.4091 79.9861C25.3491 82.9001 35.2231 79.4901 34.0011 81.5721M49.9151 52.7241C49.9151 52.1641 49.8211 46.6561 49.8211 46.6561L58.9211 46.7481M60.6011 49.4101L60.7891 56.4981M55.7951 56.0841V61.5001H51.8751M73.4091 52.3501L79.4551 52.3961M76.0711 49.1521V54.8241M62.1411 44.6941H64.8491C66.1851 49.5541 68.7231 45.9541 68.5811 44.6941M66.3411 59.2121L66.4811 63.7881M70.1691 61.7801L70.2591 72.0001M64.4751 69.6681L76.0731 69.5281M78.0091 58.0001L77.9631 62.0861M80.3891 62.4321H75.1391M63.8211 63.7881H70.2151" stroke="#595959" stroke-width="2" stroke-linecap="round" stroke-linejoin="round"/>
<path d="M57.4799 74.094C59.0307 74.094 60.2879 72.7508 60.2879 71.094C60.2879 69.4371 59.0307 68.094 57.4799 68.094C55.9291 68.094 54.6719 69.4371 54.6719 71.094C54.6719 72.7508 55.9291 74.094 57.4799 74.094Z" stroke="#595959" stroke-width="2" stroke-linecap="round" stroke-linejoin="round"/>
<path d="M57.4794 79.7059V84.6539M72.1794 43.1519C72.2714 47.8399 72.6754 52.7139 65.4134 52.9519M77.0094 43.1519H80.8214M81.7554 35.7319H84.7234M52.7734 41.1739L58.1094 41.3719" stroke="#595959" stroke-width="2" stroke-linecap="round" stroke-linejoin="round"/>
</svg>
