<svg width="36" height="36" viewBox="0 0 36 36" fill="none" xmlns="http://www.w3.org/2000/svg">
<path d="M30.0409 11.0173L12.9209 2.45734C1.42092 -3.30266 -3.29908 1.41734 2.46092 12.9173L4.20092 16.3973C4.70092 17.4173 4.70092 18.5973 4.20092 19.6173L2.46092 23.0773C-3.29908 34.5773 1.40092 39.2973 12.9209 33.5373L30.0409 24.9773C37.7209 21.1373 37.7209 14.8573 30.0409 11.0173ZM23.5809 19.4973H12.7809C11.9609 19.4973 11.2809 18.8173 11.2809 17.9973C11.2809 17.1773 11.9609 16.4973 12.7809 16.4973H23.5809C24.4009 16.4973 25.0809 17.1773 25.0809 17.9973C25.0809 18.8173 24.4009 19.4973 23.5809 19.4973Z" fill="#2E536B"/>
</svg>
