<svg width="67" height="67" viewBox="0 0 67 67" fill="none" xmlns="http://www.w3.org/2000/svg">
<path d="M30.5968 27.4617C30.914 27.78 31.2908 28.0325 31.7058 28.2048C32.1208 28.3771 32.5657 28.4658 33.015 28.4658C33.4643 28.4658 33.9092 28.3771 34.3241 28.2048C34.7391 28.0325 35.116 27.78 35.4331 27.4617L46.2438 16.6511C46.562 16.3339 46.8146 15.957 46.9869 15.5421C47.1592 15.1271 47.2479 14.6822 47.2479 14.2329C47.2479 13.7836 47.1592 13.3387 46.9869 12.9237C46.8146 12.5088 46.562 12.1319 46.2438 11.8147L35.4331 1.0041C35.116 0.685834 34.7391 0.433308 34.3241 0.261002C33.9092 0.0886962 33.4643 0 33.015 0C32.5657 0 32.1208 0.0886962 31.7058 0.261002C31.2908 0.433308 30.914 0.685834 30.5968 1.0041L19.7862 11.8147C19.4679 12.1319 19.2154 12.5088 19.0431 12.9237C18.8708 13.3387 18.7821 13.7836 18.7821 14.2329C18.7821 14.6822 18.8708 15.1271 19.0431 15.5421C19.2154 15.957 19.4679 16.3339 19.7862 16.6511L30.5968 27.4617ZM33.0121 8.26145L38.9864 14.2358L33.0121 20.21L27.0378 14.2358L33.0121 8.26145ZM35.4274 38.5711C35.1103 38.2528 34.7334 38.0003 34.3185 37.828C33.9035 37.6557 33.4586 37.567 33.0093 37.567C32.56 37.567 32.1151 37.6557 31.7001 37.828C31.2851 38.0003 30.9083 38.2528 30.5911 38.5711L19.7805 49.3817C19.4622 49.6989 19.2097 50.0757 19.0374 50.4907C18.8651 50.9057 18.7764 51.3506 18.7764 51.7999C18.7764 52.2492 18.8651 52.6941 19.0374 53.109C19.2097 53.524 19.4622 53.9009 19.7805 54.218L30.5911 65.0287C30.9083 65.3469 31.2851 65.5995 31.7001 65.7718C32.1151 65.9441 32.56 66.0328 33.0093 66.0328C33.4586 66.0328 33.9035 65.9441 34.3185 65.7718C34.7334 65.5995 35.1103 65.3469 35.4274 65.0287L46.2381 54.218C46.5564 53.9009 46.8089 53.524 46.9812 53.109C47.1535 52.6941 47.2422 52.2492 47.2422 51.7999C47.2422 51.3506 47.1535 50.9057 46.9812 50.4907C46.8089 50.0757 46.5564 49.6989 46.2381 49.3817L35.4274 38.5711ZM33.0121 57.7628L27.0378 51.7885L33.0121 45.8142L38.9864 51.7885L33.0121 57.7628ZM27.4617 30.5883L16.6511 19.7776C16.3339 19.4594 15.957 19.2068 15.5421 19.0345C15.1271 18.8622 14.6822 18.7735 14.2329 18.7735C13.7836 18.7735 13.3387 18.8622 12.9237 19.0345C12.5088 19.2068 12.1319 19.4594 11.8147 19.7776L1.0041 30.5883C0.685834 30.9054 0.433308 31.2823 0.261002 31.6973C0.0886962 32.1122 0 32.5571 0 33.0064C0 33.4557 0.0886962 33.9006 0.261002 34.3156C0.433308 34.7306 0.685834 35.1074 1.0041 35.4246L11.8147 46.2352C12.1319 46.5535 12.5088 46.806 12.9237 46.9783C13.3387 47.1506 13.7836 47.2393 14.2329 47.2393C14.6822 47.2393 15.1271 47.1506 15.5421 46.9783C15.957 46.806 16.3339 46.5535 16.6511 46.2352L27.4617 35.4246C28.1019 34.7844 28.4615 33.9161 28.4615 33.0107C28.4615 32.1053 28.1019 31.237 27.4617 30.5968V30.5883ZM14.2358 38.9864L8.26145 33.0121L14.2358 27.0378L20.2101 33.0121L14.2358 38.9864ZM65.0145 30.5883L54.2038 19.7776C53.8867 19.4594 53.5098 19.2068 53.0948 19.0345C52.6799 18.8622 52.235 18.7735 51.7857 18.7735C51.3363 18.7735 50.8914 18.8622 50.4765 19.0345C50.0615 19.2068 49.6846 19.4594 49.3675 19.7776L38.5568 30.5883C38.2386 30.9054 37.9861 31.2823 37.8137 31.6973C37.6414 32.1122 37.5527 32.5571 37.5527 33.0064C37.5527 33.4557 37.6414 33.9006 37.8137 34.3156C37.9861 34.7306 38.2386 35.1074 38.5568 35.4246L49.3675 46.2352C49.6846 46.5535 50.0615 46.806 50.4765 46.9783C50.8914 47.1506 51.3363 47.2393 51.7857 47.2393C52.235 47.2393 52.6799 47.1506 53.0948 46.9783C53.5098 46.806 53.8867 46.5535 54.2038 46.2352L65.0145 35.4246C65.6546 34.7844 66.0143 33.9161 66.0143 33.0107C66.0143 32.1053 65.6546 31.237 65.0145 30.5968V30.5883ZM51.7885 38.9864L45.8142 33.0121L51.7885 27.0378L57.7628 33.0121L51.7885 38.9864Z" fill="#1F1F1F"/>
</svg>
