<svg width="73" height="73" viewBox="0 0 73 73" fill="none" xmlns="http://www.w3.org/2000/svg">
<path d="M33.6749 31.0807C33.9921 31.399 34.369 31.6515 34.7839 31.8238C35.1989 31.9961 35.6438 32.0848 36.0931 32.0848C36.5424 32.0848 36.9873 31.9961 37.4023 31.8238C37.8172 31.6515 38.1941 31.399 38.5113 31.0807L49.3219 20.2701C49.6402 19.9529 49.8927 19.576 50.065 19.1611C50.2373 18.7461 50.326 18.3012 50.326 17.8519C50.326 17.4026 50.2373 16.9577 50.065 16.5427C49.8927 16.1277 49.6402 15.7509 49.3219 15.4337L38.5113 4.62308C38.1941 4.30481 37.8172 4.05229 37.4023 3.87998C36.9873 3.70768 36.5424 3.61898 36.0931 3.61898C35.6438 3.61898 35.1989 3.70768 34.7839 3.87998C34.369 4.05229 33.9921 4.30481 33.6749 4.62308L22.8643 15.4337C22.546 15.7509 22.2935 16.1277 22.1212 16.5427C21.9489 16.9577 21.8602 17.4026 21.8602 17.8519C21.8602 18.3012 21.9489 18.7461 22.1212 19.1611C22.2935 19.576 22.546 19.9529 22.8643 20.2701L33.6749 31.0807ZM36.0902 11.8804L42.0645 17.8547L36.0902 23.829L30.1159 17.8547L36.0902 11.8804ZM38.5056 42.19C38.1884 41.8718 37.8115 41.6193 37.3966 41.4469C36.9816 41.2746 36.5367 41.1859 36.0874 41.1859C35.6381 41.1859 35.1932 41.2746 34.7782 41.4469C34.3633 41.6193 33.9864 41.8718 33.6692 42.19L22.8586 53.0007C22.5403 53.3178 22.2878 53.6947 22.1155 54.1097C21.9432 54.5246 21.8545 54.9695 21.8545 55.4189C21.8545 55.8682 21.9432 56.3131 22.1155 56.728C22.2878 57.143 22.5403 57.5199 22.8586 57.837L33.6692 68.6477C33.9864 68.9659 34.3633 69.2184 34.7782 69.3908C35.1932 69.5631 35.6381 69.6518 36.0874 69.6518C36.5367 69.6518 36.9816 69.5631 37.3966 69.3908C37.8115 69.2184 38.1884 68.9659 38.5056 68.6477L49.3162 57.837C49.6345 57.5199 49.887 57.143 50.0593 56.728C50.2316 56.3131 50.3203 55.8682 50.3203 55.4189C50.3203 54.9695 50.2316 54.5246 50.0593 54.1097C49.887 53.6947 49.6345 53.3178 49.3162 53.0007L38.5056 42.19ZM36.0902 61.3818L30.1159 55.4075L36.0902 49.4332L42.0645 55.4075L36.0902 61.3818ZM30.5398 34.2072L19.7292 23.3966C19.412 23.0783 19.0352 22.8258 18.6202 22.6535C18.2052 22.4812 17.7603 22.3925 17.311 22.3925C16.8617 22.3925 16.4168 22.4812 16.0019 22.6535C15.5869 22.8258 15.21 23.0783 14.8929 23.3966L4.08222 34.2072C3.76396 34.5244 3.51143 34.9013 3.33913 35.3162C3.16682 35.7312 3.07812 36.1761 3.07812 36.6254C3.07812 37.0747 3.16682 37.5196 3.33913 37.9346C3.51143 38.3495 3.76396 38.7264 4.08222 39.0436L14.8929 49.8542C15.21 50.1725 15.5869 50.425 16.0019 50.5973C16.4168 50.7696 16.8617 50.8583 17.311 50.8583C17.7603 50.8583 18.2052 50.7696 18.6202 50.5973C19.0352 50.425 19.412 50.1725 19.7292 49.8542L30.5398 39.0436C31.18 38.4034 31.5397 37.5351 31.5397 36.6297C31.5397 35.7243 31.18 34.856 30.5398 34.2158V34.2072ZM17.3139 42.6054L11.3396 36.6311L17.3139 30.6568L23.2882 36.6311L17.3139 42.6054ZM68.0926 34.2072L57.2819 23.3966C56.9648 23.0783 56.5879 22.8258 56.173 22.6535C55.758 22.4812 55.3131 22.3925 54.8638 22.3925C54.4145 22.3925 53.9696 22.4812 53.5546 22.6535C53.1396 22.8258 52.7628 23.0783 52.4456 23.3966L41.635 34.2072C41.3167 34.5244 41.0642 34.9013 40.8919 35.3162C40.7196 35.7312 40.6309 36.1761 40.6309 36.6254C40.6309 37.0747 40.7196 37.5196 40.8919 37.9346C41.0642 38.3495 41.3167 38.7264 41.635 39.0436L52.4456 49.8542C52.7628 50.1725 53.1396 50.425 53.5546 50.5973C53.9696 50.7696 54.4145 50.8583 54.8638 50.8583C55.3131 50.8583 55.758 50.7696 56.173 50.5973C56.5879 50.425 56.9648 50.1725 57.2819 49.8542L68.0926 39.0436C68.7328 38.4034 69.0924 37.5351 69.0924 36.6297C69.0924 35.7243 68.7328 34.856 68.0926 34.2158V34.2072ZM54.8666 42.6054L48.8923 36.6311L54.8666 30.6568L60.8409 36.6311L54.8666 42.6054Z" fill="white"/>
</svg>
