<svg width="49" height="48" viewBox="0 0 49 48" fill="none" xmlns="http://www.w3.org/2000/svg">
<rect x="0.5" width="48" height="48" rx="8" fill="#1D353E"/>
<path d="M29.375 33.7496C29.375 34.0479 29.2565 34.3341 29.0455 34.5451C28.8345 34.756 28.5484 34.8746 28.25 34.8746H20.75C20.4516 34.8746 20.1655 34.756 19.9545 34.5451C19.7435 34.3341 19.625 34.0479 19.625 33.7496C19.625 33.4512 19.7435 33.165 19.9545 32.9541C20.1655 32.7431 20.4516 32.6246 20.75 32.6246H28.25C28.5484 32.6246 28.8345 32.7431 29.0455 32.9541C29.2565 33.165 29.375 33.4512 29.375 33.7496ZM33.125 21.7496C33.1213 23.0916 32.8061 24.4144 32.2041 25.6139C31.6022 26.8134 30.73 27.8567 29.6563 28.6617C29.5672 28.7314 29.4954 28.8207 29.4466 28.9226C29.3978 29.0246 29.3733 29.1365 29.375 29.2496C29.375 29.4958 29.3265 29.7396 29.2323 29.9671C29.1381 30.1946 28.9999 30.4013 28.8258 30.5754C28.6517 30.7495 28.445 30.8876 28.2175 30.9818C27.9901 31.0761 27.7462 31.1246 27.5 31.1246H21.5C21.2538 31.1246 21.01 31.0761 20.7825 30.9818C20.555 30.8876 20.3483 30.7495 20.1742 30.5754C20.0001 30.4013 19.862 30.1946 19.7677 29.9671C19.6735 29.7396 19.625 29.4958 19.625 29.2496V29.228C19.6233 29.114 19.5949 29.002 19.5419 28.9011C19.489 28.8001 19.4131 28.713 19.3203 28.6467C18.2541 27.8518 17.3877 26.8195 16.7897 25.6316C16.1917 24.4437 15.8785 23.1329 15.875 21.803C15.8497 17.1267 19.625 13.2371 24.2928 13.1246C25.4428 13.0969 26.5867 13.2996 27.6571 13.7207C28.7276 14.1417 29.703 14.7727 30.526 15.5763C31.349 16.38 32.0029 17.3402 32.4492 18.4003C32.8956 19.4605 33.1253 20.5993 33.125 21.7496ZM30.875 21.7496C30.8753 20.8992 30.7054 20.0574 30.3754 19.2737C30.0454 18.49 29.5619 17.7802 28.9535 17.1862C28.345 16.5921 27.6238 16.1258 26.8325 15.8147C26.0411 15.5036 25.1954 15.3539 24.3453 15.3746C20.8963 15.458 18.1063 18.3333 18.125 21.7861C18.1271 22.7699 18.3585 23.7397 18.8008 24.6185C19.2431 25.4973 19.8842 26.2608 20.6731 26.8486C20.9953 27.0903 21.2657 27.3941 21.4684 27.7421C21.6712 28.09 21.8021 28.4751 21.8534 28.8746H23.375V25.9683L20.7041 23.2955C20.5994 23.1908 20.5164 23.0666 20.4598 22.9299C20.4031 22.7932 20.374 22.6466 20.374 22.4986C20.374 22.1997 20.4927 21.9131 20.7041 21.7017C20.9154 21.4904 21.2021 21.3717 21.5009 21.3717C21.7998 21.3717 22.0865 21.4904 22.2978 21.7017L24.5 23.9058L26.7041 21.7017C26.9154 21.4904 27.2021 21.3717 27.5009 21.3717C27.7998 21.3717 28.0865 21.4904 28.2978 21.7017C28.5092 21.9131 28.6279 22.1997 28.6279 22.4986C28.6279 22.7975 28.5092 23.0842 28.2978 23.2955L25.625 25.9683V28.8746H27.1484C27.1979 28.478 27.3263 28.0954 27.5262 27.7494C27.726 27.4034 27.9932 27.1009 28.3119 26.8599C29.1104 26.2692 29.7586 25.4988 30.2039 24.6109C30.6493 23.7231 30.8791 22.7428 30.875 21.7496Z" fill="white"/>
</svg>
