<svg width="26" height="26" viewBox="0 0 26 26" fill="none" xmlns="http://www.w3.org/2000/svg">
<path d="M22.992 8.37105L10.3342 21.0288C10.224 21.1395 10.093 21.2272 9.94872 21.2871C9.80448 21.347 9.64984 21.3779 9.49365 21.3779C9.33747 21.3779 9.18283 21.347 9.03858 21.2871C8.89434 21.2272 8.76334 21.1395 8.6531 21.0288L3.11532 15.4911C3.00494 15.3807 2.91738 15.2496 2.85764 15.1054C2.7979 14.9612 2.76715 14.8066 2.76715 14.6505C2.76715 14.4944 2.7979 14.3398 2.85764 14.1956C2.91738 14.0514 3.00494 13.9203 3.11532 13.8099C3.2257 13.6996 3.35675 13.612 3.50097 13.5523C3.64519 13.4925 3.79977 13.4618 3.95588 13.4618C4.11198 13.4618 4.26656 13.4925 4.41078 13.5523C4.555 13.612 4.68605 13.6996 4.79643 13.8099L9.49464 18.5082L21.3129 6.69192C21.5358 6.46899 21.8381 6.34375 22.1534 6.34375C22.4687 6.34375 22.771 6.46899 22.994 6.69192C23.2169 6.91485 23.3421 7.21721 23.3421 7.53248C23.3421 7.84774 23.2169 8.1501 22.994 8.37303L22.992 8.37105Z" fill="#F2EBFD"/>
</svg>
