<svg width="96" height="96" viewBox="0 0 96 96" fill="none" xmlns="http://www.w3.org/2000/svg">
<path d="M95.8852 58.3839C96.2737 46.7273 95.6716 35.0587 94.0852 23.5039C94.1494 22.6785 94.1494 21.8494 94.0852 21.0239C93.5292 18.3479 85.4972 17.0279 82.1012 16.7079C81.7889 16.6739 81.4756 16.7638 81.2288 16.9583C80.982 17.1528 80.8213 17.4363 80.7812 17.7479C80.5812 20.3879 84.7812 17.7479 91.2132 21.7479C91.1387 24.5867 91.3666 27.4254 91.8932 30.2159C92.8532 39.1639 92.3332 45.3599 91.8932 69.1319C87.1444 68.0967 82.2797 67.6932 77.4252 67.9319C68.3763 67.8699 59.5388 70.6669 52.1732 75.9239C54.8932 65.3759 61.5252 62.5399 70.8732 59.1839C71.9332 58.8519 73.0412 58.7039 74.1532 58.7439C74.3734 59.2291 74.7566 59.6218 75.2362 59.8539C75.7157 60.086 76.2615 60.1428 76.7786 60.0145C77.2957 59.8862 77.7515 59.5808 78.0669 59.1514C78.3823 58.722 78.5374 58.1958 78.5052 57.6639C76.9852 17.2679 78.5052 11.5959 77.8652 7.83993C77.2252 4.08393 74.5092 3.63993 70.7132 3.07993C66.0507 2.59006 61.3421 3.35829 57.077 5.30475C52.812 7.25121 49.1463 10.3048 46.4612 14.1479C46.1412 14.8279 44.2612 18.9839 44.1012 19.4239C41.3729 17.3434 38.2238 15.8828 34.8732 15.1439C26.266 13.2355 17.2552 14.6651 9.66124 19.1439C8.18182 20.1064 6.91528 21.3618 5.93976 22.8326C4.96423 24.3035 4.30041 25.9586 3.98924 27.6959C0.469244 41.9199 -1.64676 46.1199 1.62924 76.3639C1.62924 77.6039 1.62924 79.5239 2.82924 80.6799C3.0982 80.9044 3.41303 81.0673 3.75163 81.1571C4.09023 81.2469 4.44439 81.2616 4.78924 81.1999V84.2759C5.30924 91.4679 14.8572 87.0759 25.3652 86.1959C34.0732 85.5159 35.0332 87.3919 42.7452 91.8679C45.9195 93.0607 49.3589 93.3649 52.6932 92.7479C55.4264 92.3358 58.0182 91.265 60.2452 89.6279C86.5772 70.2519 85.6572 92.9079 91.8132 76.6439C92.0932 75.8973 92.2666 75.1239 92.3332 74.3239C92.6432 74.5257 93.0005 74.6429 93.3697 74.6639C93.7389 74.6848 94.1072 74.6088 94.438 74.4435C94.7688 74.2781 95.0506 74.029 95.2553 73.7211C95.4601 73.4131 95.5807 73.0569 95.6052 72.6879C95.9759 67.9226 96.0692 63.1546 95.8852 58.3839ZM47.4612 21.5439C59.4412 -0.992065 74.3092 8.91993 74.9492 9.55993C75.2692 10.7599 73.4692 37.8519 73.3892 40.3279L73.7492 54.1119C69.3178 54.5903 65.0351 55.9891 61.1757 58.2188C57.3163 60.4485 53.9652 63.4599 51.3372 67.0599C49.3372 70.4959 50.0172 70.8559 49.6572 68.5799C49.5772 68.1799 47.2972 21.8679 47.4572 21.5479M4.30924 38.8839C5.46924 34.4519 6.90524 23.1839 10.7412 21.9039C21.9292 18.1479 33.1172 17.2279 43.5012 22.9039C44.7372 26.3319 45.2932 29.9679 45.1412 33.6119C45.1412 41.7999 45.3812 66.5319 46.3412 73.9679C39.9806 71.0695 33.03 69.6997 26.0452 69.9679C20.5199 70.4642 15.1169 71.8839 10.0612 74.1679C9.58124 74.1679 7.34124 76.4439 5.74524 77.3239C5.74524 76.7639 5.30524 76.1239 5.26524 75.8039C3.98524 64.9359 2.10924 50.6319 4.30524 38.8839M86.4532 78.1639C74.9452 73.5639 65.7972 80.0799 57.6452 85.9119C55.9029 87.0772 53.9405 87.8735 51.8788 88.2519C49.8171 88.6302 47.6998 88.5826 45.6572 88.1119C30.1932 77.1639 24.2012 82.3959 10.2172 84.5119C9.49724 84.5119 8.93724 84.8719 8.57724 84.5119C8.21724 84.1519 7.81724 81.8399 6.89724 80.5199C8.61724 79.6399 10.8972 78.2399 11.4572 78.0799C17.3292 76.2439 23.9612 71.9279 38.3452 75.9239C48.9732 78.6839 48.4132 83.3159 52.0092 81.3599C57.3652 78.4799 65.0772 69.8519 89.2092 72.7679C88.97 73.0611 88.8425 73.4296 88.8492 73.8079C86.4892 78.0439 86.6092 77.7639 86.4492 78.1599" fill="white"/>
<path d="M14.5722 35.968C18.5682 35.408 18.2482 33.448 23.5202 33.448C26.4611 33.6623 29.3622 34.2538 32.1522 35.208C32.9122 34.928 33.4722 34.608 33.4722 33.848C33.4722 32.132 31.0722 30.376 27.4362 29.856C16.9282 27.896 15.9282 32.932 13.9322 33.852C13.7495 34.0025 13.6154 34.2037 13.5467 34.4302C13.478 34.6567 13.4779 34.8985 13.5463 35.1251C13.6147 35.3517 13.7486 35.5531 13.9312 35.7037C14.1137 35.8544 14.3368 35.9478 14.5722 35.972M14.5722 50.072C18.5682 49.512 18.2482 47.556 23.5202 47.556C26.4602 47.768 29.3602 48.36 32.1522 49.316C32.9122 49.076 33.4722 48.716 33.4722 47.956C33.4722 46.236 31.0722 44.516 27.4362 43.96C16.9282 42 15.9282 47 13.9322 47.956C13.7356 47.9358 13.537 47.9644 13.3542 48.0394C13.1713 48.1144 13.0098 48.2334 12.8839 48.3858C12.7581 48.5382 12.6719 48.7193 12.6329 48.9131C12.5939 49.1069 12.6034 49.3073 12.6606 49.4965C12.7177 49.6857 12.8207 49.8579 12.9603 49.9977C13.1 50.1376 13.2721 50.2408 13.4612 50.2981C13.6504 50.3554 13.8508 50.3652 14.0446 50.3264C14.2384 50.2877 14.4197 50.2017 14.5722 50.076M14.5722 64.336C18.5682 63.776 18.2482 61.82 23.5202 61.82C26.4588 62.0511 29.3578 62.6422 32.1522 63.58C32.9122 63.34 33.4722 62.98 33.4722 62.26C33.4722 60.5 31.0722 58.78 27.4362 58.264C16.9282 56.304 15.9282 61.344 13.9322 62.26C13.6812 62.2232 13.4249 62.2671 13.2005 62.3855C12.9761 62.5039 12.7951 62.6906 12.6838 62.9186C12.5724 63.1466 12.5365 63.4041 12.5812 63.6538C12.6258 63.9036 12.7488 64.1327 12.9322 64.308C13.151 64.5199 13.4422 64.6407 13.7467 64.6459C14.0512 64.6511 14.3464 64.5403 14.5722 64.336Z" fill="white"/>
</svg>
