<svg width="53" height="50" viewBox="0 0 53 50" fill="none" xmlns="http://www.w3.org/2000/svg">
<path d="M26.0426 32.1667C30.2016 32.1667 33.5729 28.7953 33.5729 24.6363C33.5729 20.4773 30.2016 17.106 26.0426 17.106C21.8836 17.106 18.5122 20.4773 18.5122 24.6363C18.5122 28.7953 21.8836 32.1667 26.0426 32.1667Z" stroke="#FCFCFC" stroke-width="1.88259" stroke-miterlimit="10" stroke-linecap="round" stroke-linejoin="round"/>
<path d="M0.941406 26.8437V22.4259C0.941406 19.8154 3.07501 17.6568 5.71064 17.6568C10.254 17.6568 12.1114 14.4438 9.82724 10.5029C8.52197 8.24383 9.30011 5.30699 11.5843 4.00173L15.9268 1.51671C17.9098 0.336952 20.4702 1.03979 21.6499 3.02278L21.926 3.4997C24.1851 7.4406 27.9001 7.4406 30.1843 3.4997L30.4604 3.02278C31.6402 1.03979 34.2005 0.336952 36.1835 1.51671L40.526 4.00173C42.8102 5.30699 43.5884 8.24383 42.2831 10.5029C39.9989 14.4438 41.8564 17.6568 46.3997 17.6568C49.0102 17.6568 51.1689 19.7903 51.1689 22.4259V26.8437C51.1689 29.4542 49.0353 31.6129 46.3997 31.6129C41.8564 31.6129 39.9989 34.8259 42.2831 38.7668C43.5884 41.051 42.8102 43.9627 40.526 45.268L36.1835 47.753C34.2005 48.9328 31.6402 48.2299 30.4604 46.2469L30.1843 45.77C27.9252 41.8291 24.2102 41.8291 21.926 45.77L21.6499 46.2469C20.4702 48.2299 17.9098 48.9328 15.9268 47.753L11.5843 45.268C9.30011 43.9627 8.52197 41.0259 9.82724 38.7668C12.1114 34.8259 10.254 31.6129 5.71064 31.6129C3.07501 31.6129 0.941406 29.4542 0.941406 26.8437Z" stroke="#FCFCFC" stroke-width="1.88259" stroke-miterlimit="10" stroke-linecap="round" stroke-linejoin="round"/>
</svg>
