<svg width="26" height="28" viewBox="0 0 26 28" fill="none" xmlns="http://www.w3.org/2000/svg">
<path d="M25.4573 5.73468C20.8323 5.29716 16.1795 5.07178 11.5406 5.07178C8.79061 5.07178 6.04061 5.20436 3.29061 5.46952L0.457275 5.73468" stroke="#FCFCFC" stroke-width="0.914647" stroke-linecap="round" stroke-linejoin="round"/>
<path d="M8.09766 4.39489L8.40321 2.6581C8.62543 1.39859 8.7921 0.457275 11.1393 0.457275H14.7782C17.1254 0.457275 17.306 1.45162 17.5143 2.67136L17.8199 4.39489" stroke="#FCFCFC" stroke-width="0.914647" stroke-linecap="round" stroke-linejoin="round"/>
<path d="M22.4714 9.92456L21.5686 23.2753C21.4158 25.3568 21.2908 26.9743 17.4158 26.9743H8.49916C4.62416 26.9743 4.49916 25.3568 4.34638 23.2753L3.4436 9.92456" stroke="#FCFCFC" stroke-width="0.914647" stroke-linecap="round" stroke-linejoin="round"/>
<path d="M10.6377 19.6829H15.2627" stroke="#FCFCFC" stroke-width="0.914647" stroke-linecap="round" stroke-linejoin="round"/>
<path d="M9.48486 14.3782H16.4293" stroke="#FCFCFC" stroke-width="0.914647" stroke-linecap="round" stroke-linejoin="round"/>
</svg>
