<svg width="26" height="27" viewBox="0 0 26 27" fill="none" xmlns="http://www.w3.org/2000/svg">
<path d="M5.23058 4.91054L2.75811 6.52956C0.33584 8.11094 0.33584 11.6502 2.75811 13.2316L10.3135 18.164C11.669 19.0551 13.903 19.0551 15.2585 18.164L22.7763 13.2316C25.186 11.6502 25.186 8.12349 22.7763 6.54211L15.2585 1.60973C13.903 0.718633 11.669 0.718633 10.3135 1.60973" stroke="#FCFCFC" stroke-width="1.88259" stroke-linecap="round" stroke-linejoin="round"/>
<path d="M4.76646 14.8379L4.75391 20.7241C4.75391 22.3181 5.98387 24.0249 7.48994 24.527L11.4936 25.8573C12.1838 26.0832 13.3259 26.0832 14.0288 25.8573L18.0324 24.527C19.5385 24.0249 20.7685 22.3181 20.7685 20.7241V14.9006" stroke="#FCFCFC" stroke-width="1.88259" stroke-linecap="round" stroke-linejoin="round"/>
<path d="M24.5586 17.2474V9.71704" stroke="#FCFCFC" stroke-width="1.88259" stroke-linecap="round" stroke-linejoin="round"/>
</svg>
