<svg width="27" height="27" viewBox="0 0 27 27" fill="none" xmlns="http://www.w3.org/2000/svg">
<path d="M19.4284 23.0178H7.54293C6.55143 23.0178 5.83603 22.9802 5.22105 22.8923C0.865992 22.4154 0 19.8049 0 15.4749V7.54293C0 3.21297 0.853442 0.602404 5.24615 0.125481C5.84858 0.0376267 6.56398 0 7.54293 0H19.4284C20.4073 0 21.1227 0.0376267 21.7502 0.125481C26.1179 0.602404 26.9713 3.21297 26.9713 7.54293V15.4749C26.9713 19.8049 26.1178 22.4154 21.7251 22.8923C21.1353 22.9802 20.4199 23.0178 19.4284 23.0178ZM7.53036 1.88259C6.63927 1.88259 5.99919 1.92028 5.47206 1.99558C2.76113 2.2968 1.87004 3.13768 1.87004 7.55549V15.4874C1.87004 19.8927 2.76115 20.7462 5.44698 21.0348C5.9992 21.1101 6.63928 21.1478 7.54293 21.1478H19.4284C20.332 21.1478 20.9596 21.1101 21.4867 21.0348C24.1976 20.7336 25.0887 19.8927 25.0887 15.4749V7.54293C25.0887 3.13766 24.1976 2.28425 21.5118 1.99558C20.947 1.92028 20.3195 1.88259 19.4158 1.88259H7.53036Z" fill="#FCFCFC"/>
<path d="M20.0814 9.81496H15.4628C14.9482 9.81496 14.5215 9.38824 14.5215 8.87367C14.5215 8.35909 14.9482 7.93237 15.4628 7.93237H20.0814C20.596 7.93237 21.0227 8.35909 21.0227 8.87367C21.0227 9.38824 20.6085 9.81496 20.0814 9.81496Z" fill="#FCFCFC"/>
<path d="M10.9694 10.1288C10.2791 10.1288 9.71436 9.564 9.71436 8.87371C9.71436 8.18343 10.2666 7.61865 10.9694 7.61865C11.6597 7.61865 12.2245 8.18343 12.2245 8.87371C12.2245 9.564 11.6723 10.1288 10.9694 10.1288Z" fill="#FCFCFC"/>
<path d="M7.01629 10.1288C6.32601 10.1288 5.76123 9.564 5.76123 8.87371C5.76123 8.18343 6.31346 7.61865 7.01629 7.61865H7.02883C7.71911 7.61865 8.28389 8.18343 8.28389 8.87371C8.28389 9.564 7.70657 10.1288 7.01629 10.1288Z" fill="#FCFCFC"/>
<path d="M20.0815 17.0806H6.89086C6.37628 17.0806 5.93701 16.6539 5.93701 16.1393C5.93701 15.6247 6.35117 15.198 6.86574 15.198H20.0815C20.5961 15.198 21.0228 15.6247 21.0228 16.1393C21.0228 16.6539 20.6086 17.0806 20.0815 17.0806Z" fill="#FCFCFC"/>
<path d="M19.7551 26.9839H7.20448C6.6899 26.9839 6.26318 26.5572 6.26318 26.0426C6.26318 25.528 6.6899 25.1013 7.20448 25.1013H19.7551C20.2697 25.1013 20.6964 25.528 20.6964 26.0426C20.6964 26.5572 20.2697 26.9839 19.7551 26.9839Z" fill="#FCFCFC"/>
</svg>
