<svg width="60" height="60" viewBox="0 0 60 60" fill="none" xmlns="http://www.w3.org/2000/svg">
<g clip-path="url(#clip0_280_1856)">
<mask id="mask0_280_1856" style="mask-type:luminance" maskUnits="userSpaceOnUse" x="0" y="0" width="60" height="60">
<path d="M60 0H0V60H60V0Z" fill="white"/>
</mask>
<g mask="url(#mask0_280_1856)">
<path d="M47.5 56.875C46.475 56.875 45.625 56.025 45.625 55V27.5C45.625 26.475 46.475 25.625 47.5 25.625C48.525 25.625 49.375 26.475 49.375 27.5V55C49.375 56.025 48.525 56.875 47.5 56.875Z" fill="#FCFCFC"/>
<path d="M47.5 19.375C46.475 19.375 45.625 18.525 45.625 17.5V5C45.625 3.975 46.475 3.125 47.5 3.125C48.525 3.125 49.375 3.975 49.375 5V17.5C49.375 18.525 48.525 19.375 47.5 19.375Z" fill="#FCFCFC"/>
<path d="M30 56.875C28.975 56.875 28.125 56.025 28.125 55V42.5C28.125 41.475 28.975 40.625 30 40.625C31.025 40.625 31.875 41.475 31.875 42.5V55C31.875 56.025 31.025 56.875 30 56.875Z" fill="#FCFCFC"/>
<path d="M30 34.375C28.975 34.375 28.125 33.525 28.125 32.5V5C28.125 3.975 28.975 3.125 30 3.125C31.025 3.125 31.875 3.975 31.875 5V32.5C31.875 33.525 31.025 34.375 30 34.375Z" fill="#FCFCFC"/>
<path d="M12.5 56.875C11.475 56.875 10.625 56.025 10.625 55V27.5C10.625 26.475 11.475 25.625 12.5 25.625C13.525 25.625 14.375 26.475 14.375 27.5V55C14.375 56.025 13.525 56.875 12.5 56.875Z" fill="#FCFCFC"/>
<path d="M12.5 19.375C11.475 19.375 10.625 18.525 10.625 17.5V5C10.625 3.975 11.475 3.125 12.5 3.125C13.525 3.125 14.375 3.975 14.375 5V17.5C14.375 18.525 13.525 19.375 12.5 19.375Z" fill="#FCFCFC"/>
<path d="M17.5 29.375H7.5C6.475 29.375 5.625 28.525 5.625 27.5C5.625 26.475 6.475 25.625 7.5 25.625H17.5C18.525 25.625 19.375 26.475 19.375 27.5C19.375 28.525 18.525 29.375 17.5 29.375Z" fill="#FCFCFC"/>
<path d="M52.5 29.375H42.5C41.475 29.375 40.625 28.525 40.625 27.5C40.625 26.475 41.475 25.625 42.5 25.625H52.5C53.525 25.625 54.375 26.475 54.375 27.5C54.375 28.525 53.525 29.375 52.5 29.375Z" fill="#FCFCFC"/>
<path d="M35 34.375H25C23.975 34.375 23.125 33.525 23.125 32.5C23.125 31.475 23.975 30.625 25 30.625H35C36.025 30.625 36.875 31.475 36.875 32.5C36.875 33.525 36.025 34.375 35 34.375Z" fill="#FCFCFC"/>
</g>
</g>
<defs>
<clipPath id="clip0_280_1856">
<rect width="60" height="60" fill="white"/>
</clipPath>
</defs>
</svg>
