<svg width="26" height="27" viewBox="0 0 26 27" fill="none" xmlns="http://www.w3.org/2000/svg">
<path d="M14.8385 22.7999C14.1608 22.7999 13.4454 22.7372 12.6673 22.6117L6.78101 21.6829C4.92352 21.3943 3.49275 20.8797 2.42595 20.1266C-0.322633 18.219 -0.159472 14.9432 0.191945 12.6465L1.12069 6.76025C1.97413 1.36347 4.76037 -0.657167 10.1571 0.18373L16.0434 1.11247C18.8171 1.55175 22.5446 2.66875 22.783 7.35013C22.8333 8.15337 22.7831 9.06956 22.6073 10.1489L21.6911 16.0351C20.9632 20.6412 18.8171 22.7999 14.8385 22.7999ZM7.91057 1.87806C4.92352 1.87806 3.56806 3.39669 2.97818 7.06146L2.04943 12.9477C1.47211 16.6501 2.52636 17.9052 3.50531 18.5955C4.33365 19.1853 5.50085 19.587 7.06968 19.8254L12.9559 20.7542C17.3361 21.4445 19.1434 20.1266 19.8337 15.7339L20.7499 9.8477C20.9005 8.9064 20.9507 8.1157 20.9005 7.45053V7.43797C20.7624 4.80235 19.2689 3.50964 15.7422 2.95741L9.86846 2.04122C9.14053 1.92826 8.50045 1.87806 7.91057 1.87806Z" fill="#FCFCFC"/>
<path d="M16.884 26.9801C15.8172 26.9801 14.6124 26.7542 13.2193 26.2898L7.55896 24.4072C4.33345 23.3404 2.58892 21.8093 2.06179 19.5752C1.97394 19.1987 2.12455 18.7971 2.45086 18.5837C2.77718 18.3704 3.2039 18.3704 3.51766 18.5963C4.346 19.1862 5.50066 19.5878 7.06948 19.8263L12.9557 20.755C17.3359 21.4453 19.1432 20.1275 19.8334 15.7348L20.7496 9.84857C20.9002 8.90727 20.9504 8.11658 20.9002 7.4514C20.8877 7.12508 21.0508 6.79877 21.3395 6.61051C21.6282 6.42225 21.9921 6.4097 22.2934 6.57286C25.6569 8.36759 26.548 11.2416 25.0921 15.6344L23.2096 21.2947C22.3185 23.9554 21.1513 25.587 19.5197 26.4028C18.729 26.7918 17.863 26.9801 16.884 26.9801ZM5.65127 21.4704C6.2537 21.872 7.05693 22.2611 8.14884 22.625L13.8091 24.5076C15.9679 25.223 17.5116 25.2858 18.6662 24.721C19.8209 24.1437 20.6994 22.8635 21.4148 20.7048L23.2974 15.0445C24.3266 11.9319 23.9249 10.2753 22.7326 9.15828C22.7075 9.47205 22.6573 9.79836 22.6071 10.1498L21.6909 16.036C20.8375 21.4327 18.0513 23.4534 12.6545 22.625L6.76827 21.6963C6.3792 21.621 6.00268 21.5457 5.65127 21.4704Z" fill="#FCFCFC"/>
<path d="M8.80186 10.6257C7.08243 10.6257 5.67676 9.22002 5.67676 7.50059C5.67676 5.78116 7.08243 4.37549 8.80186 4.37549C10.5213 4.37549 11.927 5.78116 11.927 7.50059C11.927 9.22002 10.5213 10.6257 8.80186 10.6257ZM8.80186 6.27063C8.12413 6.27063 7.55935 6.82286 7.55935 7.51314C7.55935 8.20342 8.11158 8.75565 8.80186 8.75565C9.47959 8.75565 10.0444 8.20342 10.0444 7.51314C10.0444 6.82286 9.47959 6.27063 8.80186 6.27063Z" fill="#FCFCFC"/>
</svg>
