<svg width="27" height="26" viewBox="0 0 27 26" fill="none" xmlns="http://www.w3.org/2000/svg">
<path d="M26.0426 18.6096V3.46106C26.0426 1.95498 24.8127 0.837978 23.3191 0.963484H23.2438C20.6082 1.1894 16.6046 2.53231 14.3706 3.93798L14.1572 4.07603C13.7932 4.30195 13.1908 4.30195 12.8268 4.07603L12.5131 3.88778C10.2791 2.49466 6.28796 1.16429 3.65234 0.950934C2.15881 0.825428 0.941406 1.95498 0.941406 3.4485V18.6096C0.941406 19.8145 1.92035 20.944 3.12521 21.0947L3.48918 21.1449C6.21266 21.5088 10.4171 22.8894 12.8268 24.2072L12.877 24.2323C13.2159 24.4206 13.7556 24.4206 14.0819 24.2323C16.4916 22.9019 20.7086 21.5088 23.4446 21.1449L23.8588 21.0947C25.0637 20.944 26.0426 19.8145 26.0426 18.6096Z" stroke="#FCFCFC" stroke-width="1.88259" stroke-linecap="round" stroke-linejoin="round"/>
<path d="M13.4922 4.49097V23.3168" stroke="#FCFCFC" stroke-width="1.88259" stroke-linecap="round" stroke-linejoin="round"/>
<path d="M8.15787 8.2561H5.33398" stroke="#FCFCFC" stroke-width="1.88259" stroke-linecap="round" stroke-linejoin="round"/>
<path d="M9.09917 12.0212H5.33398" stroke="#FCFCFC" stroke-width="1.88259" stroke-linecap="round" stroke-linejoin="round"/>
</svg>
