<svg width="55" height="55" viewBox="0 0 55 55" fill="none" xmlns="http://www.w3.org/2000/svg">
<mask id="mask0_276_1850" style="mask-type:luminance" maskUnits="userSpaceOnUse" x="0" y="0" width="55" height="55">
<path d="M55 0H0V55H55V0Z" fill="white"/>
</mask>
<g mask="url(#mask0_276_1850)">
<path d="M9.78613 14.7108C8.43405 10.3566 10.8632 7.95035 15.1944 9.37118L21.9549 11.5941C23.1008 11.9608 24.8195 11.7087 25.782 10.9982L32.8403 5.91074C36.6674 3.16074 39.7151 4.76495 39.6234 9.46287L39.463 18.1483C39.4401 19.34 40.1966 20.9212 41.1591 21.6316L46.8424 25.9401C50.4862 28.6901 49.8903 32.0586 45.5362 33.4336L38.1341 35.7484C36.8966 36.138 35.5903 37.4901 35.2695 38.7505L33.5049 45.488C32.107 50.8046 28.6234 51.3315 25.7359 46.6565L21.7027 40.1255C20.9694 38.9338 19.2277 38.0401 17.8527 38.1088L10.1986 38.4982C4.72155 38.7732 3.16319 35.6107 6.73819 31.4398L11.2756 26.1692C11.7111 25.6651 12.009 24.9773 12.1694 24.244" stroke="#FCFCFC" stroke-width="1.215" stroke-linecap="round" stroke-linejoin="round"/>
<path d="M50.2111 50.4137L43.2676 43.4702" stroke="#FCFCFC" stroke-width="1.215" stroke-linecap="round" stroke-linejoin="round"/>
</g>
</svg>
