<svg width="45" height="46" viewBox="0 0 45 46" fill="none" xmlns="http://www.w3.org/2000/svg">
<path d="M37.7031 13.8274L16.2165 3.08411C1.78334 -4.14504 -4.14055 1.77885 3.0886 16.212L5.27241 20.5796C5.89994 21.8598 5.89994 23.3407 5.27241 24.6209L3.0886 28.9634C-4.14055 43.3966 1.75824 49.3205 16.2165 42.0913L37.7031 31.348C47.342 26.5286 47.342 18.6468 37.7031 13.8274ZM29.5954 24.4703H16.0408C15.0117 24.4703 14.1582 23.6169 14.1582 22.5877C14.1582 21.5586 15.0117 20.7051 16.0408 20.7051H29.5954C30.6246 20.7051 31.478 21.5586 31.478 22.5877C31.478 23.6169 30.6246 24.4703 29.5954 24.4703Z" fill="#FCFCFC"/>
</svg>
