<svg width="40" height="40" viewBox="0 0 40 40" fill="none" xmlns="http://www.w3.org/2000/svg">
<path d="M20.1335 40C17.3076 40 14.4616 38.9181 12.3171 36.7745L3.23812 27.6989C1.03351 25.4951 -0.128921 22.4499 0.0113724 19.3445L0.492378 9.30733C0.712839 4.51911 4.50076 0.732607 9.31081 0.492194L19.3318 0.0113681C22.4583 -0.128873 25.4846 1.03312 27.6893 3.23691L36.7682 12.3125C41.0772 16.6198 41.0772 23.6519 36.7682 27.9593L27.9698 36.7544C25.8053 38.9181 22.9794 40 20.1335 40ZM5.36256 25.5552L14.4415 34.6308C17.5881 37.7762 22.6988 37.7762 25.8454 34.6308L34.6438 25.8357C37.7904 22.6903 37.7904 17.5815 34.6438 14.4361L25.5448 5.38059C23.9414 3.77784 21.7569 2.93639 19.452 3.03656L9.43107 3.51739C6.18428 3.65763 3.63896 6.202 3.47862 9.44757L2.99762 19.4848C2.89741 21.7286 3.75921 23.9524 5.36256 25.5552Z" fill="#FCFCFC"/>
<path d="M14.9811 21.5067C11.3936 21.5067 8.46753 18.5817 8.46753 14.9956C8.46753 11.4094 11.3936 8.48438 14.9811 8.48438C18.5686 8.48438 21.4948 11.4094 21.4948 14.9956C21.4948 18.5817 18.5686 21.5067 14.9811 21.5067ZM14.9811 11.4895C13.0571 11.4895 11.4738 13.0723 11.4738 14.9956C11.4738 16.9189 13.0571 18.5016 14.9811 18.5016C16.9052 18.5016 18.4885 16.9189 18.4885 14.9956C18.4885 13.0723 16.9052 11.4895 14.9811 11.4895Z" fill="#FCFCFC"/>
<path d="M21.9906 31.5278C21.6098 31.5278 21.229 31.3876 20.9283 31.0871C20.3471 30.5061 20.3471 29.5444 20.9283 28.9634L28.9451 20.9497C29.5263 20.3687 30.4883 20.3687 31.0695 20.9497C31.6508 21.5307 31.6508 22.4923 31.0695 23.0733L23.0528 31.0871C22.7522 31.3876 22.3714 31.5278 21.9906 31.5278Z" fill="#FCFCFC"/>
</svg>
