<svg width="18" height="6" viewBox="0 0 18 6" fill="none" xmlns="http://www.w3.org/2000/svg">
<path d="M2.51533 0.686035C1.50922 0.686035 0.686035 1.50922 0.686035 2.51533C0.686035 3.52144 1.50922 4.34462 2.51533 4.34462C3.52144 4.34462 4.34462 3.52144 4.34462 2.51533C4.34462 1.50922 3.52144 0.686035 2.51533 0.686035Z" stroke="#FCFCFC" stroke-width="1.37197"/>
<path d="M15.3195 0.686523C14.3134 0.686523 13.4902 1.50971 13.4902 2.51582C13.4902 3.52193 14.3134 4.34511 15.3195 4.34511C16.3256 4.34511 17.1488 3.52193 17.1488 2.51582C17.1488 1.50971 16.3256 0.686523 15.3195 0.686523Z" stroke="#FCFCFC" stroke-width="1.37197"/>
<path d="M8.91718 0.686523C7.91107 0.686523 7.08789 1.50971 7.08789 2.51582C7.08789 3.52193 7.91107 4.34511 8.91718 4.34511C9.9233 4.34511 10.7465 3.52193 10.7465 2.51582C10.7465 1.50971 9.9233 0.686523 8.91718 0.686523Z" stroke="#FCFCFC" stroke-width="1.37197"/>
</svg>
