<svg width="9" height="9" viewBox="0 0 9 9" fill="none" xmlns="http://www.w3.org/2000/svg">
<path d="M0.938157 8.98312C0.699696 8.98312 0.461235 8.89527 0.272976 8.70701C-0.0909919 8.34304 -0.0909919 7.74061 0.272976 7.37664L7.37661 0.272976C7.74057 -0.0909919 8.343 -0.0909919 8.70697 0.272976C9.07094 0.636931 9.07094 1.23936 8.70697 1.60333L1.60334 8.70701C1.42763 8.89527 1.17662 8.98312 0.938157 8.98312Z" fill="#FCFCFC"/>
<path d="M8.04179 8.98312C7.80333 8.98312 7.56487 8.89527 7.37661 8.70701L0.272976 1.60333C-0.0909919 1.23936 -0.0909919 0.636931 0.272976 0.272976C0.636943 -0.0909919 1.23937 -0.0909919 1.60334 0.272976L8.70697 7.37664C9.07094 7.74061 9.07094 8.34304 8.70697 8.70701C8.51871 8.89527 8.28025 8.98312 8.04179 8.98312Z" fill="#FCFCFC"/>
</svg>
