<svg width="65" height="65" viewBox="0 0 65 65" fill="none" xmlns="http://www.w3.org/2000/svg">
<g filter="url(#filter0_fn_13736_3690)">
<g clip-path="url(#clip0_13736_3690)">
<path d="M42.0983 53.8991L17.3007 32.3428C15.3278 30.6278 14.1169 28.1991 13.9345 25.5912C13.7522 22.9833 14.6132 20.4097 16.3283 18.4367C18.0434 16.4637 20.4722 15.2529 23.0801 15.0705C25.6879 14.8881 28.2616 15.7493 30.2345 17.4643L55.0321 39.0205" fill="#FEBB25"/>
<path d="M42.0983 53.8991L17.3007 32.3428C15.3278 30.6278 14.1169 28.1991 13.9345 25.5912C13.7522 22.9833 14.6132 20.4097 16.3283 18.4367C18.0434 16.4637 20.4722 15.2529 23.0801 15.0705C25.6879 14.8881 28.2616 15.7493 30.2345 17.4643L55.0321 39.0205" stroke="#FEBB25" stroke-width="3.28571" stroke-linecap="round" stroke-linejoin="round"/>
<path d="M58.2665 35.3008L38.8658 57.6186" stroke="#FEBB25" stroke-width="3.28571" stroke-linecap="round" stroke-linejoin="round"/>
<path d="M47.5946 32.5537L43.2833 37.5132M40.1553 26.0868L35.8441 31.0464M32.716 19.62L28.4048 24.5795" stroke="#FEBB25" stroke-width="3.28571" stroke-linecap="round" stroke-linejoin="round"/>
</g>
</g>
<defs>
<filter id="filter0_fn_13736_3690" x="-3.99917" y="-4" width="72.8945" height="72.8955" filterUnits="userSpaceOnUse" color-interpolation-filters="sRGB">
<feFlood flood-opacity="0" result="BackgroundImageFix"/>
<feBlend mode="normal" in="SourceGraphic" in2="BackgroundImageFix" result="shape"/>
<feGaussianBlur stdDeviation="2" result="effect1_foregroundBlur_13736_3690"/>
<feTurbulence type="fractalNoise" baseFrequency="2 2" stitchTiles="stitch" numOctaves="3" result="noise" seed="7260" />
<feColorMatrix in="noise" type="luminanceToAlpha" result="alphaNoise" />
<feComponentTransfer in="alphaNoise" result="coloredNoise1">
<feFuncA type="discrete" tableValues="1 1 1 1 1 1 1 1 1 1 1 1 1 1 1 1 1 1 1 1 1 1 1 1 1 1 1 1 1 1 1 1 1 1 1 1 1 1 1 1 1 1 1 1 1 1 1 1 1 1 1 0 0 0 0 0 0 0 0 0 0 0 0 0 0 0 0 0 0 0 0 0 0 0 0 0 0 0 0 0 0 0 0 0 0 0 0 0 0 0 0 0 0 0 0 0 0 0 0 0 "/>
</feComponentTransfer>
<feComposite operator="in" in2="effect1_foregroundBlur_13736_3690" in="coloredNoise1" result="noise1Clipped" />
<feFlood flood-color="rgba(0, 0, 0, 0.25)" result="color1Flood" />
<feComposite operator="in" in2="noise1Clipped" in="color1Flood" result="color1" />
<feMerge result="effect2_noise_13736_3690">
<feMergeNode in="effect1_foregroundBlur_13736_3690" />
<feMergeNode in="color1" />
</feMerge>
</filter>
<clipPath id="clip0_13736_3690">
<rect width="46" height="46" fill="white" transform="translate(64.8954 30.1787) rotate(131)"/>
</clipPath>
</defs>
</svg>
