<svg width="120" height="120" viewBox="0 0 120 120" fill="none" xmlns="http://www.w3.org/2000/svg">
<path d="M60.1823 100.503C58.0437 102.182 55.3441 102.981 52.6358 102.735C49.9276 102.49 47.4155 101.219 45.6135 99.1828L45.2132 98.702L23.266 70.7581C21.5865 68.6199 20.7876 65.9209 21.033 63.2134C21.2783 60.5058 22.5493 57.9944 24.5859 56.193L25.0668 55.7929L35.3999 47.6817L38.876 37.0931C39.1215 36.3465 39.5609 35.6784 40.1492 35.157C40.7376 34.6357 41.4538 34.2798 42.2247 34.1257L42.7526 34.0501L53.8608 33.1903L64.1966 25.0769C66.3353 23.398 69.0349 22.5995 71.7432 22.8449C74.4514 23.0904 76.9635 24.3612 78.7655 26.3973L79.1658 26.8781L101.113 54.822C102.793 56.9602 103.591 59.6592 103.346 62.3667C103.101 65.0742 101.83 67.5856 99.7931 69.3871L99.3122 69.7872L60.1823 100.503ZM55.7929 94.9144L94.9227 64.1984C95.6073 63.6609 96.0707 62.891 96.225 62.0346C96.3794 61.1782 96.214 60.2949 95.7602 59.5523L95.523 59.21L73.5758 31.2661C73.0381 30.5817 72.268 30.1184 71.4113 29.9641C70.5547 29.8097 69.6712 29.975 68.9285 30.4286L68.5861 30.6657L58.253 38.7769C57.31 39.5174 56.1949 40.0074 55.0116 40.2011L54.4132 40.2734L45.0751 40.9994L42.1543 49.8962C41.7804 51.0359 41.124 52.0625 40.2463 52.8801L39.7893 53.2705L29.4562 61.3817C28.7717 61.9192 28.3083 62.6891 28.154 63.5455C27.9996 64.4019 28.165 65.2852 28.6188 66.0278L28.856 66.3701L50.8032 94.314C51.3408 94.9983 52.111 95.4617 52.9676 95.616C53.8243 95.7704 54.7077 95.6051 55.4505 95.1515L55.7929 94.9144ZM74.1667 57.9054C73.0548 58.7783 71.6415 59.1737 70.2379 59.0048C68.8343 58.8359 67.5552 58.1165 66.6821 57.0049C65.809 55.8932 65.4133 54.4803 65.5822 53.077C65.7511 51.6738 66.4706 50.3951 67.5825 49.5223C68.6944 48.6494 70.1076 48.254 71.5113 48.4229C72.9149 48.5918 74.194 49.3112 75.0671 50.4229C75.9402 51.5345 76.3358 52.9474 76.167 54.3507C75.9981 55.7539 75.2786 57.0326 74.1667 57.9054ZM54.6018 73.2634C53.4898 74.1363 52.0766 74.5317 50.673 74.3628C49.2694 74.1939 47.9903 73.4745 47.1172 72.3628C46.2441 71.2512 45.8484 69.8383 46.0173 68.435C46.1861 67.0318 46.9057 65.7531 48.0176 64.8803C49.1295 64.0074 50.5427 63.612 51.9464 63.7809C53.35 63.9497 54.629 64.6692 55.5022 65.7808C56.3753 66.8925 56.7709 68.3054 56.6021 69.7087C56.4332 71.1119 55.7137 72.3906 54.6018 73.2634Z" fill="#FEBB25"/>
</svg>
