<svg width="69" height="56" viewBox="0 0 69 56" fill="none" xmlns="http://www.w3.org/2000/svg">
<path d="M31.1152 28.6782C30.3809 25.4977 28.5381 23.0849 25.5867 21.4398C22.6352 19.7947 19.4017 19.378 15.886 20.1897L6.65726 22.3203L11.9197 45.1143L21.1484 42.9836C24.6641 42.172 27.3877 40.38 29.3193 37.6076C31.2509 34.8352 31.8495 31.8588 31.1152 28.6782ZM68.3843 42.4078L63.9897 43.4224L62.6435 37.5913L53.3415 39.7389C49.8745 40.5393 46.5211 40.3829 43.2811 39.2698C40.0411 38.1567 37.4497 36.2889 35.507 33.6665C34.8617 36.8864 33.327 39.7068 30.9028 42.1275C28.4787 44.5483 25.5332 46.1589 22.0663 46.9593L12.8375 49.09L14.1837 54.921L9.78906 55.9355L-0.00143904 13.5282L4.3932 12.5136L5.7394 18.3447L14.9682 16.214C18.4351 15.4136 21.7886 15.57 25.0285 16.6831C28.2685 17.7962 30.8843 19.6584 32.8758 22.2695C33.4724 19.0609 34.9827 16.2461 37.4068 13.8254C39.8309 11.4046 42.7764 9.79398 46.2434 8.99358L55.5454 6.84604L54.1992 1.01503L58.5938 0.000451199L68.3843 42.4078Z" fill="#FEBB25"/>
</svg>
